<svg width="156" height="47" viewBox="0 0 156 47" fill="none" xmlns="http://www.w3.org/2000/svg">
<path d="M26.705 2.85937C26.9342 2.90625 27.1633 2.94792 27.3925 2.99479C27.4342 2.90625 27.481 2.8125 27.5279 2.71875C27.5279 2.85417 27.5279 2.98958 27.5279 3.13021C27.5696 3.04167 27.6165 2.95312 27.6633 2.85937C27.7519 2.85937 27.8456 2.85937 27.9394 2.85937C27.9394 2.99479 27.9394 3.13021 27.9394 3.26562C28.1477 3.25521 28.1477 3.25521 28.356 3.23958C28.9602 3.27083 29.3144 3.42708 29.856 3.67708C30.0592 3.74479 30.2623 3.8125 30.4654 3.875C31.4185 4.18229 32.2831 4.66667 33.1425 5.17708C33.2258 5.22917 33.3092 5.27604 33.3925 5.32812C35.2102 6.42708 36.8821 7.75521 38.2102 9.41146C38.3248 9.52083 38.4342 9.63021 38.554 9.74479C39.4446 10.6562 39.4446 10.6562 39.4446 11.1875C39.5279 11.1927 39.6112 11.1979 39.6998 11.2031C39.7935 11.2448 39.8925 11.2812 39.9915 11.3229C40.1477 11.6979 40.1477 11.6979 40.2675 12.1458C40.356 12.3698 40.4446 12.599 40.5383 12.8281C40.6269 12.8281 40.7206 12.8281 40.8144 12.8281C40.8821 13 40.9498 13.1719 41.0175 13.349C41.0748 13.4896 41.0748 13.4896 41.1321 13.6406C41.2258 13.9167 41.2258 13.9167 41.2258 14.3281C41.3144 14.3281 41.4029 14.3281 41.4967 14.3281C41.5331 14.4323 41.5696 14.5417 41.6008 14.651C41.9185 15.6042 41.9185 15.6042 42.2675 16.5469C42.6112 17.474 42.7675 18.2552 42.731 19.2448C42.8196 19.2448 42.9133 19.2448 43.0019 19.2448C43.231 21.8021 43.3665 24.3906 42.731 26.8906C42.6998 27.0365 42.6633 27.1823 42.6321 27.3333C42.33 28.6406 41.9133 29.8385 41.2258 30.9896C41.1321 31.2187 41.1321 31.2187 41.0331 31.4479C40.804 31.9635 40.5227 32.3958 40.205 32.8594C39.9342 33.2552 39.6946 33.6615 39.455 34.0729C39.3821 34.1667 39.3821 34.1667 39.304 34.2656C39.2154 34.2656 39.1269 34.2656 39.0331 34.2656C38.9967 34.3698 38.9654 34.4687 38.929 34.5729C38.7467 34.9792 38.5592 35.1875 38.2362 35.4896C37.9133 35.7969 37.6269 36.0885 37.3456 36.4427C36.9133 36.9844 36.3456 37.3854 35.804 37.8125C35.4498 38.0833 35.4498 38.0833 35.1998 38.5C36.0748 39.0521 36.8144 39.1198 37.8404 39.1458C38.3717 39.1823 38.8092 39.276 39.304 39.4583C39.5644 39.974 39.6373 40.5208 39.7154 41.0937C39.6269 41.0937 39.5383 41.0937 39.4446 41.0937C39.4342 41.1771 39.4185 41.2656 39.4081 41.349C39.304 41.6406 39.304 41.6406 39.0592 41.8125C38.7571 41.9115 38.7571 41.9115 38.2102 41.9115C38.2102 42.0052 38.2102 42.0937 38.2102 42.1875C37.6529 42.1979 37.0956 42.2083 36.5435 42.2135C36.304 42.2187 36.304 42.2187 36.0644 42.224C35.9133 42.224 35.7571 42.224 35.6008 42.2292C35.4602 42.2292 35.3248 42.2292 35.179 42.2344C34.7258 42.1771 34.4758 42.0312 34.1008 41.776C33.83 41.6667 33.5592 41.5573 33.2883 41.4531C32.7779 41.25 32.4029 41.0833 32.0227 40.6823C31.679 40.375 31.679 40.375 31.3612 40.4427C31.0279 40.5469 30.7206 40.6771 30.4029 40.8229C28.9446 41.4427 28.9446 41.4427 28.2102 41.3698C28.1685 41.5052 28.1217 41.6406 28.0748 41.776C27.3352 41.8385 26.6008 41.901 25.8612 41.9583C25.6112 41.9792 25.3612 42 25.106 42.0208C24.7467 42.0521 24.3821 42.0833 24.0227 42.1094C23.9133 42.1198 23.7987 42.1302 23.6894 42.1406C23.0227 42.1927 22.4081 42.1667 21.7519 42.0677C21.4862 42.026 21.4862 42.026 21.2258 42.1875C21.0487 42.125 21.0487 42.125 20.8665 42.0573C20.3144 41.8854 19.8873 41.8958 19.3092 41.9115C19.3092 41.8229 19.3092 41.7344 19.3092 41.6406C19.1998 41.625 19.0904 41.6094 18.9758 41.5937C18.1894 41.4792 17.5487 41.349 16.8456 40.9583C16.6998 40.9167 16.554 40.8802 16.4029 40.8385C15.8612 40.6771 15.3873 40.4531 14.8925 40.1823C14.804 40.1354 14.7154 40.0833 14.6217 40.0365C13.9394 39.6667 13.2831 39.2604 12.6321 38.8333C12.33 38.6354 12.33 38.6354 12.0279 38.4948C11.6477 38.2969 11.3925 37.9844 11.0904 37.6823C10.9758 37.5937 10.8665 37.5052 10.7467 37.4167C10.3456 37.0885 10.0487 36.7135 9.72062 36.3125C9.55916 36.1562 9.55916 36.1562 9.3977 35.9896C9.00187 35.599 8.6477 35.1823 8.28833 34.7552C8.22062 34.6823 8.1477 34.6146 8.07479 34.5417C7.98625 34.5417 7.8977 34.5417 7.80395 34.5417C7.73104 34.3906 7.65291 34.2344 7.58 34.0833C7.48104 33.8802 7.38208 33.6823 7.28312 33.4792C7.23104 33.3802 7.18416 33.2812 7.13208 33.1771C6.88729 32.6875 6.6425 32.2448 6.29874 31.8073C6.25708 31.6979 6.21541 31.5885 6.17895 31.474C6.03833 31.0937 6.03833 31.0937 5.66333 30.7917C5.34041 30.4427 5.34041 30.4427 5.29354 29.9896C5.30916 29.8698 5.32479 29.75 5.34041 29.625C5.34041 29.7135 5.34041 29.8021 5.34041 29.8958C5.15812 29.8958 4.97583 29.8958 4.78833 29.8958C4.8352 29.7604 4.88208 29.625 4.92895 29.4844C4.98625 28.75 4.84562 28.151 4.63208 27.4427C3.86645 24.7187 3.80395 21.7604 4.24145 18.974C4.2675 18.8021 4.29354 18.6354 4.31958 18.4635C4.77791 15.974 5.87166 13.3385 7.37687 11.2969C7.54354 11.0573 7.54354 11.0573 7.59562 10.7656C7.71541 10.3177 8.13729 10.1094 8.48625 9.82292C8.5852 9.64062 8.67374 9.45833 8.76229 9.27604C8.99145 9.04687 9.22062 8.82292 9.44458 8.59375C9.49145 8.45833 9.53833 8.32292 9.5852 8.18229C9.68937 8.17187 9.79874 8.16146 9.90812 8.15104C10.2883 8.08854 10.2883 8.08854 10.4237 7.77604C10.4602 7.68229 10.5019 7.59375 10.5435 7.5C10.679 7.45312 10.8144 7.41146 10.955 7.36458C10.9967 7.22917 11.0435 7.09375 11.0904 6.95312C11.3769 6.72917 11.6529 6.52604 11.955 6.32292C12.0331 6.26562 12.1165 6.21354 12.1946 6.15625C12.5956 5.88541 12.9394 5.65625 13.4185 5.58854C13.4185 5.5 13.4185 5.40625 13.4185 5.31771C16.0904 3.96875 18.5644 2.94271 21.5852 2.70312C21.731 2.69271 21.8717 2.68229 22.0227 2.67187C25.1737 2.43229 25.1737 2.43229 26.705 2.85937Z" fill="#64645B"/>
<path d="M23.9498 7.4323C24.0696 7.4323 24.1894 7.4375 24.3144 7.4375C25.5592 7.47917 26.4863 7.71354 27.4342 8.55209C28.0852 9.09896 28.6373 9.07292 29.4706 9.09375C31.4394 9.27084 33.3925 10.4167 34.6477 11.9063C35.5644 13.1458 35.8821 14.1563 35.7467 15.6927C35.8196 15.724 35.8977 15.7552 35.9758 15.7917C37.5852 16.6875 38.7988 18.6719 39.4446 20.3385C40.2363 23.3177 39.5696 26.375 38.0852 29.0104C37.4602 30.0729 36.7102 30.9063 35.7467 31.6719C35.6165 31.7708 35.4915 31.8698 35.3613 31.974C33.0956 33.724 33.0956 33.724 32.33 33.7188C31.8925 33.5104 31.5696 33.1823 31.2258 32.849C30.679 32.3229 30.679 32.3229 30.08 31.8646C29.856 31.6719 29.856 31.6719 29.8092 31.3854C29.8196 31.2865 29.83 31.1823 29.8404 31.0729C29.8613 30.5677 29.8508 30.2083 29.58 29.7604C28.9498 29.5521 28.3248 29.5521 27.6633 29.625C27.2988 29.8802 27.1738 30.0521 26.981 30.4427C26.9602 31.0781 27.0383 31.5521 27.3821 32.0885C27.9133 32.4271 28.2415 32.375 28.8508 32.3438C29.1685 32.3542 29.1685 32.3542 29.5279 32.6094C29.7206 32.901 29.7206 32.901 29.7206 33.1719C29.7935 33.2083 29.8717 33.2448 29.955 33.2813C31.2258 33.9583 31.9029 35.0417 32.606 36.2396C33.2675 37.3594 33.8769 38.1927 35.0592 38.7708C35.106 38.6823 35.1529 38.5938 35.1998 38.5C35.3352 38.5885 35.4758 38.6771 35.6165 38.7656C36.3352 39.1302 37.0488 39.125 37.8404 39.1458C38.3717 39.1823 38.8092 39.276 39.304 39.4583C39.5644 39.974 39.6373 40.5208 39.7154 41.0938C39.6269 41.0938 39.5383 41.0938 39.4446 41.0938C39.4342 41.1771 39.4185 41.2656 39.4081 41.349C39.304 41.6406 39.304 41.6406 39.0592 41.8125C38.7571 41.9115 38.7571 41.9115 38.2102 41.9115C38.2102 42.0052 38.2102 42.0938 38.2102 42.1875C37.6529 42.1979 37.0956 42.2083 36.5435 42.2135C36.3821 42.2135 36.2258 42.2188 36.0644 42.224C35.8352 42.224 35.8352 42.224 35.6008 42.2292C35.3925 42.2292 35.3925 42.2292 35.179 42.2344C34.7258 42.1771 34.4758 42.0313 34.1008 41.776C33.83 41.6667 33.5592 41.5573 33.2883 41.4531C32.3873 41.0885 31.679 40.625 31.1373 39.7969C30.7935 39.2656 30.3821 38.7813 29.981 38.2917C29.7206 37.9531 29.7206 37.9531 29.5383 37.599C29.2258 37.151 28.8925 37.0208 28.3977 36.7917C28.2258 36.7083 28.054 36.6302 27.8821 36.5469C27.7206 36.4688 27.5592 36.3958 27.3925 36.3125C25.58 35.4063 24.1738 33.9948 23.4185 32.0833C23.3769 31.9844 23.3352 31.8854 23.2935 31.7865C23.0279 31.0573 22.9602 30.349 22.9394 29.5833C22.9342 29.4896 22.929 29.3958 22.9238 29.2969C22.9238 28.7604 22.9915 28.5521 23.3456 28.1302C23.5175 27.9896 23.5175 27.9896 23.6894 27.849C23.9081 27.6302 23.8508 27.4115 23.856 27.1146C23.856 27.0052 23.856 26.8958 23.8613 26.7865C23.8508 26.4427 23.8508 26.4427 23.554 26.0729C23.5852 25.2865 23.7935 24.6354 24.08 23.9063C24.2258 23.5104 24.3456 23.1146 24.4602 22.7135C24.7935 21.5833 25.3248 20.8906 26.1581 20.0625C26.356 19.8281 26.554 19.5885 26.7467 19.349C27.2415 18.7396 27.7467 18.1406 28.2571 17.5469C28.3248 17.4635 28.3925 17.3854 28.4654 17.3021C28.6529 17.0833 28.8404 16.8646 29.0331 16.651C29.1738 16.4896 29.1738 16.4896 29.3196 16.3281C29.6217 16.0677 29.8144 16.0156 30.205 15.9583C30.6842 15.8854 30.929 15.8125 31.2258 15.4219C31.3613 15.0104 31.4029 14.625 31.3613 14.1927C31.0644 13.8073 30.8352 13.5885 30.4029 13.375C29.8665 13.3229 29.5331 13.3281 29.0488 13.5677C28.6894 14.0052 28.6738 14.2917 28.6529 14.8438C28.5748 15.5729 28.0696 16.0417 27.606 16.5729C27.455 16.7448 27.3092 16.9115 27.1581 17.0833C27.0488 17.2135 27.0488 17.2135 26.929 17.3438C26.5175 17.8281 26.106 18.3125 25.6998 18.7969C25.3665 19.1927 25.0175 19.5625 24.6529 19.9271C24.5904 19.276 24.5331 18.625 24.4758 17.974C24.455 17.7552 24.4342 17.5365 24.4133 17.3125C24.1373 14.2865 24.1373 14.2865 24.2415 13.5104C24.5748 13.151 24.5748 13.151 24.9238 12.9635C25.1425 12.526 25.1321 12.0729 25.0592 11.599C24.8144 11.2135 24.6477 10.9792 24.2415 10.776C23.4446 10.6979 23.4446 10.6979 22.7519 11.0417C22.4654 11.4479 22.4238 11.5781 22.356 12.0417C22.231 12.7865 21.7988 13.1458 21.2519 13.6406C20.9498 13.9063 20.9498 13.9063 20.731 14.2188C20.5435 14.4635 20.5435 14.4635 20.1321 14.6042C19.7363 14.625 19.3404 14.6406 18.9446 14.651C18.705 14.6615 18.4706 14.6667 18.231 14.6771C17.8508 14.6927 17.4758 14.7031 17.1008 14.7135C16.7363 14.724 16.3717 14.7396 16.0123 14.7552C15.8977 14.7552 15.7883 14.7552 15.6685 14.7604C15.0904 14.7865 14.8508 14.8281 14.3769 15.1927C14.0123 15.6823 14.0227 16.0938 14.054 16.6771C14.0592 16.8333 14.0592 16.8333 14.0592 16.9896C14.08 17.5313 14.1165 18.0677 14.1738 18.6042C14.1946 18.8177 14.2206 19.0313 14.2415 19.2448C14.2571 19.375 14.2727 19.5104 14.2883 19.6458C14.3456 20.474 14.2623 20.974 13.7623 21.651C13.2154 22.2552 12.8404 22.3906 12.0488 22.5208C11.6894 22.724 11.6894 22.724 11.5019 23.0677C11.4342 23.6615 11.4342 24.0052 11.6633 24.5521C11.9654 24.9063 12.1425 25.0156 12.5956 25.1146C13.1217 25.099 13.4394 25.0677 13.8613 24.75C14.1738 24.3438 14.1321 24.1667 14.0696 23.6667C14.0331 22.7604 14.3456 22.349 14.9446 21.6979C15.0696 21.5677 15.0696 21.5677 15.1998 21.4323C15.3717 21.0885 15.3404 20.8906 15.3196 20.5156C15.3144 20.3854 15.3092 20.2552 15.2988 20.1198C15.2935 19.9792 15.2831 19.8385 15.2779 19.6979C15.2154 18.4531 15.1842 17.2135 15.1998 15.9688C15.4602 15.9583 15.4602 15.9583 15.7258 15.9479C16.3717 15.9219 17.0175 15.8906 17.6633 15.8542C17.9342 15.8385 18.205 15.8229 18.4758 15.8125C20.1633 15.8021 20.1633 15.8021 21.6373 15.1146C21.8613 14.8646 21.8613 14.8646 22.0488 14.6042C22.179 14.4427 22.3092 14.2865 22.4394 14.1302C22.5852 13.9583 22.5852 13.9583 22.731 13.7813C22.8248 13.7813 22.9133 13.7813 23.0071 13.7813C23.2675 15.1042 23.3769 16.4271 23.4758 17.7656C23.5019 18.1302 23.5331 18.4896 23.5592 18.849C23.5748 19.0833 23.5956 19.3125 23.6113 19.5469C23.6217 19.7083 23.6217 19.7083 23.6373 19.8698C23.731 21.2031 23.58 22.2135 23.1425 23.4792C23.0592 23.7188 23.0592 23.7188 22.9758 23.9688C22.6269 24.9271 22.3665 25.5 21.5019 26.0729C21.2935 26.6927 21.2571 27.3125 21.5019 27.9167C21.5696 28.0156 21.5696 28.0156 21.6373 28.1198C21.7258 28.1198 21.8196 28.1198 21.9133 28.1198C21.8925 29.1979 21.8196 30.1458 21.0904 30.9896C19.5019 32.2188 17.2988 32.1094 15.4029 31.9063C13.1217 31.5781 10.9446 30.5052 9.43417 28.7448C7.92375 26.7083 7.7675 24.3958 7.97584 21.9479C8.15813 20.7917 8.56959 19.6302 9.18938 18.6406C9.48104 18.1406 9.52792 17.6979 9.56438 17.1198C9.76229 15.1094 10.7727 13.1875 12.3248 11.8698C12.4133 11.8698 12.5019 11.8698 12.5956 11.8698C12.5956 11.7813 12.5956 11.6927 12.5956 11.599C14.2571 10.1719 16.1477 9.67709 18.2727 9.52084C19.4706 9.42188 20.0644 9.11459 20.9654 8.32813C21.9185 7.65104 22.7831 7.40625 23.9498 7.4323Z" fill="#E2DFD3"/>
<path d="M132.497 12.6563C132.637 12.651 132.773 12.651 132.919 12.6458C134.372 12.6406 134.372 12.6406 135.049 13.099C135.689 13.9948 135.965 15.1146 136.278 16.1563C136.419 16.6354 136.564 17.1094 136.715 17.5885C136.762 17.7396 136.762 17.7396 136.809 17.8906C137.179 19.099 137.58 20.2917 137.986 21.4896C138.018 21.5938 138.054 21.6979 138.09 21.8073C138.189 22.1094 138.294 22.4063 138.393 22.7083C138.424 22.8021 138.455 22.8958 138.491 22.9896C138.622 23.3802 138.752 23.7656 138.882 24.151C139.158 24.9375 139.158 24.9375 139.158 25.3906C139.247 25.4375 139.335 25.4792 139.429 25.526C139.512 25.7917 139.512 25.7917 139.59 26.1667C139.783 26.9844 140.033 27.7813 140.299 28.5833C140.361 28.776 140.361 28.776 140.429 28.974C140.518 29.2448 140.606 29.5156 140.695 29.7865C141.971 33.6198 141.971 33.6198 142.512 35.4271C142.549 35.5521 142.59 35.6771 142.632 35.8073C142.814 36.4323 142.913 36.901 142.715 37.5417C142.382 37.9688 142.148 38.125 141.622 38.2292C141.189 38.2604 140.762 38.2604 140.33 38.2604C140.158 38.2656 140.158 38.2656 139.976 38.2708C138.82 38.276 138.82 38.276 138.335 37.8177C137.794 36.9063 137.523 35.8281 137.205 34.8229C137.153 34.6667 137.106 34.5104 137.054 34.3542C136.689 33.2135 136.689 33.2135 136.689 32.901C136.518 32.9115 136.34 32.9219 136.158 32.9375C133.46 33.0885 130.768 32.9896 128.064 32.901C128.038 32.9896 128.012 33.0833 127.986 33.1771C127.736 34.1094 127.471 35.0365 127.179 35.9583C127.143 36.0885 127.101 36.2188 127.059 36.3542C126.851 37.026 126.669 37.5885 126.143 38.0885C125.538 38.2917 124.945 38.2552 124.314 38.2604C124.116 38.2656 124.116 38.2656 123.919 38.2708C122.715 38.276 122.715 38.276 122.174 37.8177C121.726 36.9271 122.33 35.5313 122.58 34.651C122.721 34.2656 122.721 34.2656 122.997 34.1302C123.028 33.9115 123.059 33.6875 123.085 33.4688C123.179 32.8854 123.387 32.3385 123.575 31.7813C123.622 31.6458 123.669 31.5104 123.715 31.3698C123.866 30.9167 124.018 30.4635 124.169 30.0104C124.278 29.6927 124.382 29.375 124.491 29.0573C124.773 28.2135 125.054 27.375 125.34 26.5365C125.622 25.6979 125.903 24.8542 126.184 24.0156C126.512 23.0417 126.835 22.0677 127.163 21.0938C127.627 19.724 128.09 18.349 128.544 16.974C128.616 16.7604 128.684 16.5469 128.757 16.3333C128.882 15.9583 129.002 15.5833 129.127 15.2083C129.179 15.0469 129.236 14.8854 129.288 14.7188C129.335 14.5833 129.377 14.4479 129.424 14.3073C129.632 13.75 129.83 13.2448 130.252 12.8281C130.991 12.6302 131.741 12.6615 132.497 12.6563ZM132.309 18.4271C132.278 18.5573 132.247 18.6875 132.21 18.8229C131.773 20.5677 131.236 22.2813 130.689 23.9896C130.21 25.5 129.752 27.0156 129.294 28.5313C131.33 28.5313 133.361 28.5313 135.46 28.5313C135.325 28.4844 135.189 28.4427 135.049 28.3958C135.137 28.349 135.226 28.3021 135.32 28.2604C135.143 27.3698 134.898 26.5156 134.622 25.651C134.554 25.4375 134.491 25.2188 134.439 25C134.351 24.6719 134.252 24.3542 134.148 24.0313C134.106 23.901 134.064 23.7708 134.023 23.6406C133.981 23.5052 133.934 23.3698 133.893 23.2292C133.627 22.4063 133.361 21.5833 133.132 20.7448C133.002 20.2865 132.872 19.8333 132.721 19.3802C132.627 19.0625 132.533 18.7448 132.445 18.4271C132.398 18.4271 132.356 18.4271 132.309 18.4271Z" fill="#ADAC8C"/>
<path d="M84.231 12.8281C84.2779 12.9635 84.3248 13.099 84.3665 13.2344C84.5123 13.2292 84.6529 13.224 84.7988 13.2187C84.9863 13.2135 85.1738 13.2083 85.3613 13.2031C85.5019 13.1927 85.5019 13.1927 85.6477 13.1875C86.0748 13.1823 86.3613 13.1927 86.7258 13.4375C87.0904 13.9427 87.0488 14.3854 87.0488 15C87.0488 15.1198 87.0488 15.2448 87.0488 15.3698C87.054 15.776 87.054 16.1771 87.054 16.5833C87.0592 16.8646 87.0592 17.1458 87.0644 17.4271C87.0696 18.1667 87.0696 18.9063 87.0748 19.6458C87.0748 20.3958 87.08 21.151 87.0852 21.9063C87.0956 23.3854 87.106 24.8646 87.106 26.3438C88.429 25.0417 88.429 25.0417 89.5748 23.5885C89.6633 23.4635 89.7571 23.3333 89.8456 23.2031C89.9394 23.2031 90.0279 23.2031 90.1217 23.2031C90.1581 23.125 90.1946 23.0417 90.2363 22.9583C90.3925 22.6719 90.554 22.4479 90.7675 22.1979C90.8404 22.1146 90.9081 22.0313 90.9863 21.9427C91.0592 21.8594 91.1321 21.776 91.2102 21.6875C91.2831 21.599 91.356 21.5156 91.4342 21.4219C92.2363 20.4948 92.2363 20.4948 92.8196 20.4375C92.9602 20.4375 93.106 20.4375 93.2571 20.4375C93.4133 20.4375 93.5696 20.4375 93.731 20.4375C93.981 20.4375 93.981 20.4375 94.231 20.4375C94.3977 20.4375 94.5592 20.4375 94.731 20.4375C94.9654 20.4375 94.9654 20.4375 95.205 20.4375C95.4238 20.4375 95.4238 20.4375 95.6425 20.4375C96.0123 20.474 96.0123 20.474 96.4238 20.7448C96.5123 21.3333 96.4915 21.6094 96.1477 22.099C95.955 22.2865 95.955 22.2865 95.7623 22.4792C95.6217 22.625 95.4863 22.7656 95.3456 22.9115C95.2727 22.9792 95.1998 23.0521 95.1269 23.125C94.804 23.4583 94.4915 23.8021 94.179 24.1458C93.3352 25.0625 92.481 25.9792 91.6269 26.8906C91.8144 27.3906 92.0383 27.8125 92.3248 28.2604C92.4081 28.3906 92.4967 28.5208 92.5852 28.6563C93.0175 29.3125 93.455 29.9687 93.8925 30.6198C94.8925 32.099 95.8665 33.5938 96.8092 35.1094C96.9654 35.349 97.1217 35.5833 97.2779 35.8177C97.6269 36.3438 97.6269 36.3437 97.6529 36.724C97.3821 37.1354 97.3821 37.1354 96.9706 37.2708C96.4081 37.3073 95.8404 37.3021 95.2727 37.3073C95.0435 37.3073 95.0435 37.3073 94.804 37.3125C94.58 37.3125 94.58 37.3125 94.3456 37.3177C94.2102 37.3177 94.0748 37.3177 93.929 37.3177C93.481 37.2604 93.2258 37.125 92.8613 36.8594C92.5956 36.5 92.5956 36.5 92.356 36.1042C92.0331 35.5625 92.0331 35.5625 91.6269 35.0833C91.5019 34.8646 91.3821 34.6406 91.2675 34.4167C90.8092 33.5729 90.2883 32.7865 89.7467 31.9948C89.6529 31.8594 89.5592 31.724 89.4654 31.5885C89.0592 30.9167 89.0592 30.9167 88.4758 30.4427C88.4446 30.5208 88.4081 30.599 88.3717 30.6823C88.1894 31.0208 87.9758 31.2708 87.7154 31.5521C87.2154 32.1042 87.0956 32.3437 87.106 33.099C87.1113 33.901 87.0956 34.7083 87.0644 35.5104C87.0644 35.625 87.0592 35.7396 87.054 35.8542C87.054 35.9635 87.0488 36.0677 87.0435 36.1771C87.0383 36.276 87.0331 36.3698 87.0331 36.4688C86.955 36.7969 86.8196 36.9219 86.5592 37.1354C86.1008 37.3646 85.5852 37.3021 85.08 37.3073C84.9133 37.3073 84.9133 37.3073 84.7467 37.3125C84.0956 37.3177 83.6581 37.2865 83.1373 36.8594C82.804 36.3646 82.8248 36.1406 82.8248 35.5521C82.8248 35.4583 82.8248 35.3698 82.8248 35.2708C82.8196 34.9635 82.8196 34.6563 82.8196 34.349C82.8196 34.125 82.8196 33.9063 82.8144 33.6823C82.8144 33.0833 82.8144 32.4844 82.8144 31.8802C82.8092 31.5052 82.8092 31.1302 82.8092 30.7552C82.804 29.4479 82.804 28.1406 82.804 26.8333C82.804 25.6094 82.7988 24.3906 82.7935 23.1719C82.7883 22.125 82.7883 21.0781 82.7883 20.026C82.7883 19.401 82.7831 18.776 82.7831 18.151C82.7779 17.5625 82.7779 16.974 82.7779 16.3854C82.7779 16.1719 82.7779 15.9531 82.7779 15.7396C82.7727 15.4427 82.7779 15.151 82.7779 14.8542C82.7779 14.6875 82.7779 14.526 82.7779 14.3542C82.8873 13.7917 83.106 13.5885 83.5488 13.2344C83.9342 13.1927 83.9342 13.1927 84.231 13.2344C84.231 13.099 84.231 12.9635 84.231 12.8281Z" fill="#636657"/>
<path d="M118.064 21.7031C119.512 22.875 120.304 24.6615 120.528 26.4844C120.554 27.0104 120.559 27.5365 120.564 28.0625C120.564 28.2031 120.57 28.3437 120.57 28.4896C120.58 29.8333 120.58 29.8333 120.116 30.3073C119.465 30.5052 118.783 30.4583 118.106 30.4583C117.981 30.4583 117.856 30.4583 117.726 30.4531C117.32 30.4531 116.919 30.4531 116.512 30.4531C116.241 30.4531 115.965 30.4479 115.689 30.4479C115.023 30.4479 114.351 30.4479 113.679 30.4427C113.679 30.5781 113.679 30.7135 113.679 30.8542C113.273 30.7865 113.273 30.7865 112.856 30.7135C112.903 30.625 112.95 30.5365 112.997 30.4427C112.679 30.3958 112.361 30.3542 112.038 30.3073C111.971 30.5104 111.971 30.5104 111.898 30.7135C111.898 30.5833 111.898 30.4479 111.898 30.3073C111.814 30.3177 111.726 30.3281 111.637 30.3385C111.528 30.3542 111.413 30.3698 111.299 30.3854C111.132 30.4062 111.132 30.4062 110.965 30.4271C110.669 30.4427 110.669 30.4427 110.393 30.3073C110.606 31.25 110.835 32.1562 111.491 32.901C111.851 33.1146 111.851 33.1146 112.174 33.1719C112.174 33.2656 112.174 33.3542 112.174 33.4479C112.58 33.5365 112.986 33.625 113.408 33.7187C113.45 33.6302 113.497 33.5417 113.544 33.4479C113.679 33.5365 113.814 33.625 113.955 33.7187C115.387 33.901 116.679 33.4948 117.96 32.8906C118.387 32.75 118.601 32.7448 119.023 32.901C119.299 33.3385 119.434 33.6094 119.434 34.1302C119.523 34.1771 119.616 34.2187 119.705 34.2656C119.71 34.4844 119.715 34.7031 119.715 34.9219C119.715 35.0469 119.721 35.1667 119.721 35.2917C119.705 35.6302 119.705 35.6302 119.57 36.0417C119.278 36.2187 119.002 36.375 118.695 36.5208C118.611 36.5625 118.523 36.6042 118.434 36.6458C117.309 37.1771 116.158 37.4792 114.913 37.5417C114.762 37.5521 114.611 37.5625 114.455 37.5729C112.419 37.6354 110.351 37.2292 108.783 35.8437C108.325 35.3958 107.893 34.9531 107.512 34.4271C107.424 34.3281 107.335 34.2292 107.241 34.1302C107.064 34.1302 106.882 34.1302 106.695 34.1302C106.648 33.9948 106.606 33.8594 106.559 33.7187C106.601 33.6354 106.648 33.5521 106.695 33.4635C106.872 33.0833 106.825 32.8854 106.695 32.4896C106.606 32.4479 106.512 32.401 106.419 32.3542C106.366 32.1094 106.366 32.1094 106.335 31.7917C106.325 31.6771 106.309 31.5573 106.299 31.4375C106.288 31.3177 106.278 31.1927 106.268 31.0677C106.257 30.9479 106.241 30.8281 106.231 30.7083C105.955 27.776 106.288 24.8646 108.174 22.4844C110.705 19.7656 115.122 19.5521 118.064 21.7031ZM111.387 24.5208C110.705 25.3333 110.393 26.3802 110.393 27.4375C111.346 27.4583 112.33 27.474 113.268 27.3021C113.361 27.2135 113.45 27.1198 113.544 27.0312C113.59 27.1198 113.632 27.2083 113.679 27.3021C114.106 27.3385 114.533 27.3646 114.955 27.3958C115.137 27.4115 115.137 27.4115 115.32 27.4271C115.439 27.4323 115.554 27.4427 115.674 27.4479C115.835 27.4583 115.835 27.4583 115.997 27.474C116.294 27.4635 116.294 27.4635 116.528 27.2552C116.736 27.0208 116.736 27.0208 116.674 26.6406C116.445 25.6719 116.215 24.849 115.46 24.1615C114.804 23.7812 114.299 23.7031 113.544 23.75C113.544 23.8854 113.544 24.0208 113.544 24.1615C113.408 24.2292 113.408 24.2292 113.268 24.2969C113.226 24.2083 113.179 24.1198 113.132 24.026C113.085 23.9792 113.044 23.9323 112.997 23.8854C113.132 23.8437 113.268 23.7969 113.408 23.75C112.616 23.651 111.955 23.9896 111.387 24.5208ZM107.106 33.7187C107.241 33.9948 107.241 33.9948 107.241 33.9948L107.106 33.7187Z" fill="#636657"/>
<path d="M47.6842 20.3906C47.8821 20.3854 47.8821 20.3854 48.08 20.3854C48.2154 20.3906 48.3508 20.3958 48.4915 20.3958C48.6946 20.3958 48.6946 20.3958 48.9029 20.3906C49.8925 20.401 49.8925 20.401 50.2988 20.6979C50.6008 21.1094 50.6217 21.3646 50.6425 21.875C50.6477 22.0417 50.6581 22.2135 50.6633 22.3906C50.679 23.2031 50.6842 24.0156 50.679 24.8281C50.6633 26.5 50.6738 28.1719 50.7154 29.8437C50.7206 30.099 50.7206 30.099 50.7258 30.3542C50.7571 31.3854 50.8196 32.2708 51.4967 33.099C52.1842 33.6354 53.1321 33.5208 53.9602 33.4479C54.33 33.3073 54.4863 33.1719 54.7831 32.901C54.8613 32.8437 54.9394 32.7812 55.0227 32.724C55.5019 32.0781 55.5071 31.2396 55.5071 30.4687C55.5071 30.3125 55.5071 30.3125 55.5071 30.1562C55.5071 29.9375 55.5123 29.7187 55.5123 29.5C55.5123 29.151 55.5123 28.8021 55.5175 28.4583C55.5227 27.4687 55.5279 26.4792 55.5331 25.4896C55.5331 24.8854 55.5383 24.2812 55.5435 23.6719C55.5435 23.4427 55.5435 23.2135 55.5435 22.9792C55.5435 22.6615 55.5488 22.3385 55.5488 22.0156C55.5488 21.9219 55.5488 21.8281 55.5488 21.7292C55.554 21.3385 55.5592 21.0833 55.7988 20.7604C56.3925 20.3542 57.0123 20.4479 57.7102 20.4479C57.9081 20.4479 57.9081 20.4479 58.1113 20.4427C58.2363 20.4427 58.3613 20.4427 58.4915 20.4427C58.6113 20.4427 58.7258 20.4427 58.8456 20.4427C59.2154 20.4792 59.4133 20.526 59.7154 20.7448C60.054 21.4948 60.0279 22.224 60.0331 23.026C60.0331 23.1719 60.0331 23.3177 60.0331 23.4687C60.0383 23.9479 60.0383 24.4271 60.0383 24.9062C60.0383 25.2448 60.0435 25.5781 60.0435 25.9115C60.0435 26.6094 60.0488 27.3073 60.0488 28.0104C60.0488 28.9063 60.054 29.8021 60.0592 30.6979C60.0644 31.3906 60.0644 32.0781 60.0644 32.7656C60.0644 33.099 60.0644 33.4271 60.0696 33.7604C60.0748 34.2187 60.0748 34.6823 60.0696 35.1458C60.0748 35.2812 60.0748 35.4167 60.0748 35.5573C60.0696 36.2031 60.0644 36.4896 59.6581 37.0156C59.3092 37.2656 59.1685 37.3542 58.7467 37.349C58.5956 37.3437 58.5956 37.3437 58.4446 37.3437C58.2883 37.3385 58.2883 37.3385 58.1321 37.3281C57.9758 37.3281 57.9758 37.3281 57.8196 37.3281C56.8352 37.3073 56.8352 37.3073 56.429 37C56.2519 36.7344 56.2519 36.7344 56.1217 36.4323C56.0488 36.2865 56.0488 36.2865 55.981 36.1354C55.929 36.0208 55.929 36.0208 55.8821 35.9062C55.8092 35.9687 55.7363 36.0313 55.6633 36.0937C54.2571 37.2604 52.731 37.6667 50.9081 37.5052C49.8092 37.3437 49.0331 36.9896 48.1581 36.3281C47.9185 36.151 47.9185 36.151 47.5227 36.0417C47.4238 35.7708 47.3352 35.5 47.2519 35.224C47.1165 34.9427 46.9706 34.6667 46.8248 34.3958C46.1269 32.9062 46.2467 31.0521 46.2415 29.4479C46.2415 29.2135 46.2363 28.974 46.2363 28.7344C46.2363 28.2396 46.2363 27.7448 46.231 27.25C46.231 26.6146 46.2258 25.9792 46.2206 25.349C46.2154 24.8594 46.2154 24.3698 46.2154 23.8802C46.2154 23.6458 46.2154 23.4115 46.2102 23.1771C46.205 22.849 46.2102 22.526 46.2102 22.1979C46.205 22.1042 46.205 22.0052 46.205 21.9062C46.2102 21.3802 46.2831 21.1719 46.6165 20.7552C47.0175 20.4427 47.1842 20.3854 47.6842 20.3906Z" fill="#646657"/>
<path d="M149.08 12.6458C149.179 12.6458 149.278 12.6406 149.382 12.6406C150.044 12.6406 150.502 12.7344 151.075 13.099C151.413 13.6042 151.382 13.8594 151.382 14.4635C151.387 14.6094 151.387 14.6094 151.387 14.7552C151.387 15.0833 151.387 15.4115 151.387 15.7396C151.387 15.974 151.393 16.2083 151.393 16.4427C151.398 17.0781 151.398 17.7187 151.398 18.3542C151.398 18.75 151.398 19.151 151.398 19.5469C151.403 20.9375 151.403 22.3229 151.403 23.7135C151.408 25.0104 151.408 26.3021 151.413 27.599C151.419 28.7083 151.424 29.8177 151.424 30.9323C151.424 31.5937 151.424 32.2604 151.429 32.9219C151.429 33.5469 151.429 34.1719 151.429 34.7969C151.429 35.026 151.429 35.2552 151.434 35.4844C151.434 35.7969 151.434 36.1094 151.429 36.4219C151.429 36.5938 151.434 36.7708 151.434 36.9531C151.325 37.526 151.111 37.724 150.663 38.0885C150.184 38.3281 149.648 38.2708 149.122 38.276C148.945 38.2865 148.945 38.2865 148.768 38.2917C148.184 38.3021 147.835 38.25 147.299 37.9844C146.544 37.2344 146.809 35.5833 146.804 34.6042C146.804 34.3073 146.804 34.0104 146.804 33.7135C146.804 33.5 146.804 33.2865 146.804 33.0677C146.799 32.4896 146.799 31.9115 146.799 31.3333C146.799 30.9687 146.799 30.6042 146.799 30.2448C146.794 29.1042 146.794 27.9687 146.794 26.8333C146.794 25.5208 146.794 24.2135 146.788 22.901C146.783 21.8854 146.783 20.875 146.783 19.8594C146.783 19.25 146.783 18.6458 146.778 18.0417C146.778 17.474 146.778 16.9063 146.778 16.3385C146.778 16.1302 146.778 15.9219 146.778 15.7135C146.773 15.4271 146.773 15.1406 146.778 14.8594C146.778 14.6979 146.778 14.5417 146.778 14.375C146.835 13.8229 146.986 13.4583 147.236 12.9635C147.794 12.599 148.434 12.6458 149.08 12.6458Z" fill="#AEAD8D"/>
<path d="M100.762 13.151C100.882 13.151 100.997 13.151 101.122 13.151C101.241 13.151 101.366 13.1562 101.491 13.1615C101.674 13.1562 101.674 13.1562 101.861 13.1562C102.616 13.1615 102.986 13.2292 103.544 13.7812C103.632 14.2031 103.632 14.2031 103.632 14.7083C103.632 14.849 103.632 14.849 103.632 14.9948C103.632 15.3073 103.632 15.6146 103.627 15.9271C103.627 16.151 103.632 16.375 103.632 16.599C103.632 17.2083 103.632 17.8177 103.627 18.4271C103.627 19.0625 103.627 19.6979 103.627 20.3333C103.627 21.401 103.622 22.4687 103.616 23.5365C103.616 24.7708 103.611 26.0052 103.611 27.2448C103.616 28.4323 103.611 29.6198 103.611 30.8073C103.611 31.3125 103.611 31.8177 103.611 32.3229C103.611 32.9167 103.606 33.5156 103.606 34.1094C103.601 34.3281 103.601 34.5469 103.601 34.7656C103.601 35.0625 103.601 35.3646 103.601 35.6615C103.596 35.8281 103.596 35.9948 103.596 36.1667C103.538 36.625 103.46 36.8125 103.132 37.1354C102.585 37.3177 102.08 37.3021 101.507 37.3073C101.398 37.3073 101.288 37.3125 101.174 37.3125C100.528 37.3177 100.096 37.2812 99.5748 36.8594C99.3404 36.401 99.4081 35.8802 99.4029 35.375C99.4029 35.2448 99.4029 35.1198 99.4029 34.9896C99.3977 34.5677 99.3925 34.1406 99.3873 33.7187C99.3821 33.4167 99.3821 33.1198 99.3769 32.8229C99.3665 31.8542 99.356 30.8906 99.3508 29.9219C99.3508 29.7604 99.3456 29.599 99.3456 29.4271C99.2727 21.276 99.2727 21.276 99.3092 17.7552C99.3144 17.4062 99.3144 17.0573 99.3196 16.7135C99.3196 16.2448 99.3248 15.776 99.3352 15.3021C99.3352 15.1719 99.3352 15.0365 99.3352 14.901C99.3508 14.2865 99.3769 14 99.7467 13.4948C100.132 13.2292 100.299 13.151 100.762 13.151Z" fill="#636657"/>
<path d="M73.1373 20.3385C73.1842 20.4271 73.2258 20.5156 73.2727 20.6094C73.3665 20.6563 73.455 20.7031 73.5488 20.7448C73.8248 20.8854 73.8248 20.8854 73.9602 21.1563C73.9915 21.4792 74.0175 21.8073 74.0383 22.1302C74.054 22.3906 74.054 22.3906 74.0696 22.6615C74.08 22.7969 74.0904 22.9271 74.0956 23.0677C74.1633 22.9792 74.2258 22.8906 74.2935 22.7969C75.2675 21.5156 76.4394 20.6042 78.0696 20.3385C78.3665 20.3177 78.6633 20.3073 78.9602 20.3021C79.1113 20.3021 79.2623 20.2969 79.4185 20.2917C79.8977 20.3438 80.1529 20.4531 80.5331 20.7448C80.7154 21.2865 80.6685 21.7917 80.6373 22.3542C80.6321 22.5104 80.6321 22.5104 80.6269 22.6771C80.5904 23.375 80.5123 24.1823 79.9863 24.7083C79.7988 24.7135 79.606 24.7135 79.4185 24.7083C79.2988 24.7031 79.1842 24.7031 79.0592 24.6979C78.8144 24.6927 78.5696 24.6875 78.3196 24.6771C77.1321 24.6563 76.1477 24.8854 75.2623 25.7083C74.3665 26.7083 74.08 27.9219 74.08 29.2292C74.08 29.3906 74.08 29.5521 74.08 29.7188C74.08 29.8906 74.0748 30.0625 74.0748 30.2448C74.0748 30.6094 74.0696 30.9792 74.0696 31.3438C74.0644 31.9219 74.0644 32.5 74.0644 33.0833C74.0644 33.4583 74.0592 33.8385 74.0592 34.2135C74.054 34.5729 74.054 34.9271 74.054 35.2813C74.0383 36.474 74.0383 36.474 73.6529 37.0365C73.2675 37.276 73.08 37.3542 72.6321 37.3542C72.5123 37.3542 72.3977 37.349 72.2727 37.349C72.1529 37.349 72.0279 37.3438 71.9029 37.3385C71.7206 37.3385 71.7206 37.3385 71.5331 37.3385C70.8717 37.3281 70.3769 37.3073 69.8508 36.8594C69.7206 36.474 69.6946 36.2292 69.6946 35.8281C69.6894 35.6979 69.6894 35.5677 69.6894 35.4375C69.6894 35.2969 69.6894 35.1563 69.6894 35.0104C69.6842 34.8646 69.6842 34.7135 69.6842 34.5625C69.679 34.0729 69.679 33.5833 69.6738 33.0885C69.6738 32.9219 69.6738 32.7552 69.6738 32.5833C69.6685 31.7865 69.6685 30.9948 69.6685 30.1979C69.6633 29.3698 69.6581 28.5469 69.6529 27.7188C69.6477 26.8333 69.6425 25.9479 69.6425 25.0625C69.6425 24.724 69.6425 24.3854 69.6373 24.0469C69.6321 23.5781 69.6321 23.1042 69.6321 22.6302C69.6321 22.4896 69.6269 22.3542 69.6269 22.2083C69.6321 21.5573 69.6373 21.2552 70.0383 20.7292C70.4238 20.4583 70.6008 20.3854 71.0644 20.375C71.1842 20.375 71.3092 20.3698 71.4342 20.3646C71.6217 20.3646 71.6217 20.3646 71.8092 20.3646C72.0019 20.3594 72.0019 20.3594 72.1998 20.3542C72.5123 20.3438 72.8248 20.3385 73.1373 20.3385Z" fill="#636657"/>
<path d="M64.2779 20.4219C64.4081 20.4167 64.5383 20.4115 64.6738 20.4063C64.7988 20.4063 64.9238 20.4063 65.054 20.401C65.1685 20.401 65.2831 20.3958 65.4029 20.3958C65.929 20.5156 66.1008 20.7292 66.4238 21.1563C66.5279 21.651 66.5175 22.1406 66.5123 22.6406C66.5123 22.7917 66.5123 22.9427 66.5123 23.0938C66.5123 23.5885 66.5123 24.0833 66.5071 24.5781C66.5071 24.9219 66.5071 25.2656 66.5071 25.6094C66.5071 26.3333 66.5071 27.0521 66.5019 27.7708C66.4967 28.6042 66.4967 29.4375 66.4967 30.2656C66.4967 31.0677 66.4967 31.8698 66.4915 32.6719C66.4915 33.0104 66.4915 33.3542 66.4915 33.6927C66.4915 34.1667 66.4863 34.6458 66.481 35.1198C66.4863 35.2604 66.4863 35.401 66.4863 35.5469C66.481 35.6771 66.481 35.8073 66.481 35.9427C66.481 36.0521 66.481 36.1667 66.481 36.2813C66.4133 36.6667 66.2831 36.8542 66.0175 37.1354C65.4654 37.3177 64.9602 37.3021 64.3873 37.3073C64.2258 37.3073 64.2258 37.3073 64.054 37.3125C63.4133 37.3177 62.9654 37.2917 62.455 36.8594C62.205 36.4583 62.1477 36.1563 62.1425 35.6823C62.1425 35.5573 62.1425 35.4323 62.1425 35.3021C62.1425 35.1615 62.1425 35.026 62.1425 34.8854C62.1425 34.7396 62.1425 34.5938 62.1425 34.4427C62.1373 33.9635 62.1373 33.4792 62.1373 33C62.1373 32.6667 62.1373 32.3333 62.1373 31.9948C62.1373 31.2969 62.1373 30.5938 62.1373 29.8958C62.1373 28.9948 62.1373 28.0938 62.1321 27.1979C62.1321 26.5052 62.1321 25.8177 62.1321 25.125C62.1321 24.7917 62.1321 24.4635 62.1269 24.1302C62.1269 23.6667 62.1269 23.2031 62.1269 22.7396C62.1269 22.6042 62.1269 22.4688 62.1269 22.3229C62.1373 21.151 62.1373 21.151 62.5904 20.6094C63.106 20.3542 63.7154 20.4323 64.2779 20.4219Z" fill="#646758"/>
<path d="M33.2779 17.7448C33.6998 18.0469 33.9915 18.3802 34.2363 18.8333C34.2206 19.1042 34.205 19.375 34.179 19.6458C34.304 20.2187 34.8821 20.5104 35.33 20.8437C35.7258 21.1406 36.08 21.4531 36.4394 21.7969C36.5383 21.8906 36.6321 21.9844 36.7363 22.0781C37.4811 23.0156 37.3665 24.3698 37.2883 25.5052C37.205 26.1563 36.8925 26.5781 36.429 27.0313C36.3092 27.151 36.3092 27.151 36.1842 27.2708C35.455 27.9427 34.7154 28.2396 33.7154 28.2292C32.6738 27.974 31.8196 27.0729 31.0748 26.3385C30.7571 26.026 30.5175 25.8125 30.0644 25.7656C29.8248 25.7708 29.5904 25.7813 29.3508 25.7969C28.9133 25.8021 28.679 25.6667 28.3508 25.3906C27.9602 24.8125 27.9811 24.2917 28.0748 23.6146C28.3196 23.2135 28.4758 23.0052 28.8977 22.7969C29.554 22.7031 30.0123 22.7292 30.6008 23.0521C30.955 23.3854 30.9967 23.651 31.0436 24.125C31.1425 24.8177 31.4133 25.0781 31.955 25.5104C32.2102 25.6979 32.4706 25.8854 32.7311 26.0729C32.8561 26.1719 32.9811 26.2708 33.1061 26.375C33.5748 26.7448 33.9029 26.8073 34.5071 26.8021C34.9758 26.724 35.1842 26.4271 35.4706 26.0729C35.58 25.9792 35.58 25.9792 35.6894 25.8802C36.1529 25.3646 36.08 24.4375 36.0488 23.776C35.9186 22.9063 35.4238 22.4063 34.7936 21.8229C34.6946 21.7292 34.5956 21.6354 34.4915 21.5417C33.8717 21.026 33.4081 20.7813 32.5904 20.7708C32.1321 20.7344 31.8456 20.4844 31.4967 20.2031C31.1633 19.6979 31.1113 19.2813 31.2258 18.6979C31.6946 17.8906 32.3456 17.5156 33.2779 17.7448Z" fill="#626359"/>
<path d="M66.1529 13.6458C66.8665 14.4479 67.1633 15.0781 67.1477 16.1563C67.0696 16.9115 66.7311 17.4948 66.1686 18C65.4238 18.5052 64.7258 18.6667 63.8248 18.5625C63.0488 18.401 62.554 18.0781 62.0696 17.4531C61.6373 16.7708 61.5696 16.1042 61.6894 15.3229C61.9133 14.4583 62.4342 13.8333 63.1842 13.3594C64.0852 12.875 65.33 13.0833 66.1529 13.6458Z" fill="#636656"/>
<path d="M20.8144 18.8333C21.231 19.0729 21.5592 19.3594 21.7727 19.7917C21.8248 20.474 21.7988 20.8906 21.3613 21.4323C21.0279 21.6667 20.731 21.8229 20.3404 21.9531C19.9394 22.1406 19.7883 22.3177 19.5331 22.6771C19.2154 23.1042 18.8925 23.5156 18.5383 23.9115C18.4602 24.0052 18.3821 24.0937 18.2987 24.1875C18.0748 24.4323 18.0748 24.4323 17.8613 24.6354C17.5644 24.9323 17.3977 25.1615 17.3717 25.5833C17.3873 25.8229 17.3977 26.0625 17.4133 26.2969C17.3925 26.6198 17.3925 26.6198 17.0644 27.0365C16.5644 27.4062 16.2467 27.4948 15.6165 27.4896C15.1477 27.4062 14.9342 27.1146 14.6529 26.7552C14.429 26.3177 14.455 25.8646 14.5175 25.3906C14.705 25 14.705 25 15.0644 24.7083C15.2779 24.6667 15.4915 24.6406 15.705 24.6146C16.6738 24.4635 17.0904 23.8021 17.6633 23.0677C17.7675 22.9479 17.8717 22.8229 17.981 22.6979C18.6373 21.9531 18.6373 21.9531 18.8977 21.0208C18.8508 20.9323 18.8092 20.8385 18.7623 20.7448C18.6685 19.9479 18.6685 19.9479 18.9029 19.5521C19.4602 18.875 19.9446 18.6875 20.8144 18.8333Z" fill="#616157"/>
<path d="M34.2363 38.3646C34.5071 38.5 34.7831 38.6354 35.0592 38.7708C35.106 38.6823 35.1529 38.5938 35.1998 38.5C35.3352 38.5885 35.4758 38.6771 35.6165 38.7656C36.3352 39.1302 37.0488 39.125 37.8404 39.1458C38.3717 39.1823 38.8092 39.276 39.304 39.4583C39.5644 39.974 39.6373 40.5208 39.7154 41.0938C39.6269 41.0938 39.5383 41.0938 39.4446 41.0938C39.4342 41.1771 39.4185 41.2656 39.4081 41.349C39.304 41.6406 39.304 41.6406 39.0592 41.8125C38.7571 41.9115 38.7571 41.9115 38.2102 41.9115C38.2102 42.0052 38.2102 42.0938 38.2102 42.1875C37.6529 42.1979 37.0956 42.2083 36.5435 42.2135C36.3821 42.2135 36.2258 42.2188 36.0644 42.224C35.9133 42.224 35.7571 42.224 35.6008 42.2292C35.3925 42.2292 35.3925 42.2292 35.179 42.2344C34.7258 42.1771 34.4758 42.0313 34.1008 41.776C33.83 41.6667 33.5592 41.5573 33.2883 41.4531C32.481 41.125 31.9758 40.75 31.3613 40.1406C31.981 40.1406 32.4238 40.5104 32.9342 40.8333C33.5592 41.2083 34.054 41.3073 34.7883 41.3698C34.9706 41.4583 35.1529 41.5521 35.3352 41.6406C35.7675 41.6615 35.7675 41.6615 36.1581 41.6406C36.1581 41.7292 36.1581 41.8229 36.1581 41.9115C37.6113 41.8438 37.6113 41.8438 38.8404 41.151C39.0331 40.9583 39.0331 40.9583 39.304 40.9583C39.1685 40.599 39.0331 40.2344 38.8977 39.8646C38.7623 39.9115 38.6217 39.9531 38.4863 40C38.3508 39.9115 38.2154 39.8229 38.0748 39.7292C37.7988 39.724 37.5279 39.724 37.2519 39.7292C37.1842 39.6615 37.1842 39.6615 37.1165 39.5938C36.9029 39.5729 36.6946 39.5521 36.481 39.5417C35.83 39.4844 35.3717 39.3281 34.7883 39.0469C34.606 38.9948 34.4238 38.9479 34.2363 38.9115C34.2363 38.7292 34.2363 38.5469 34.2363 38.3646Z" fill="#A29E95"/>
<path d="M62.5904 20.6094C63.0123 20.6094 63.429 20.6042 63.8508 20.6042C63.9654 20.599 64.0852 20.599 64.2102 20.599C64.7831 20.5938 65.3196 20.599 65.8769 20.7448C65.8769 20.7917 65.8769 20.8385 65.8769 20.8854C64.8404 20.8854 63.7988 20.8854 62.7258 20.8854C62.6842 25.974 62.6373 31.0677 62.5904 36.3125C62.304 35.8906 62.2831 35.7969 62.2831 35.3125C62.2831 35.1927 62.2831 35.0677 62.2779 34.9427C62.2779 34.8125 62.2831 34.6771 62.2831 34.5417C62.2831 34.401 62.2831 34.2656 62.2779 34.1198C62.2779 33.6563 62.2779 33.1927 62.2831 32.7292C62.2779 32.4063 62.2779 32.0833 62.2779 31.7604C62.2779 31.0885 62.2779 30.4115 62.2831 29.7344C62.2831 28.8698 62.2831 28.0052 62.2779 27.1354C62.2779 26.474 62.2779 25.8073 62.2779 25.1406C62.2831 24.8229 62.2779 24.5052 62.2779 24.1823C62.2779 23.7396 62.2779 23.2917 62.2831 22.8438C62.2831 22.6458 62.2831 22.6458 62.2779 22.4479C62.2831 21.7813 62.33 21.2344 62.5904 20.6094Z" fill="#545646"/>
<path d="M9.99667 36.1771C10.5435 36.5781 11.08 36.9792 11.58 37.4427C12.9758 38.6771 14.6373 39.5729 16.2935 40.4115C15.8925 40.5833 15.7467 40.5469 15.33 40.3854C15.1685 40.3021 15.0123 40.224 14.8508 40.1406C14.7623 40.0938 14.679 40.0521 14.5956 40.0052C13.9185 39.6563 13.2727 39.2604 12.6373 38.8385C12.3352 38.6354 12.3352 38.6354 12.0279 38.4948C11.6477 38.2969 11.3925 37.9844 11.0904 37.6823C10.9758 37.5938 10.8613 37.5052 10.7415 37.4167C10.356 37.0938 10.1217 36.7396 9.85605 36.3125C9.90292 36.2708 9.9498 36.224 9.99667 36.1771Z" fill="#4F4E47"/>
<path d="M42.455 18.6979C42.5904 18.7656 42.5904 18.7656 42.731 18.8333C42.731 18.9688 42.731 19.1042 42.731 19.2448C42.8196 19.2448 42.9133 19.2448 43.0019 19.2448C43.1217 20.4896 43.1581 21.724 43.1477 22.974C43.1477 23.1406 43.1477 23.3125 43.1477 23.4844C43.1477 23.8906 43.1425 24.2969 43.1425 24.7083C42.9394 24.776 42.9394 24.776 42.731 24.8438C42.7258 24.7083 42.7258 24.5677 42.7206 24.4271C42.705 23.9115 42.6946 23.3958 42.679 22.875C42.6738 22.6563 42.6685 22.4323 42.6633 22.2083C42.6321 21.0313 42.5956 19.8698 42.455 18.6979Z" fill="#56564E"/>
<path d="M59.58 21.1562C59.6217 21.1562 59.6685 21.1562 59.7154 21.1562C59.9446 22.2083 60.0279 23.2031 60.0123 24.2812C60.0123 24.4167 60.0123 24.5573 60.0123 24.6979C60.0123 25.3177 59.9758 25.875 59.8508 26.4844C59.8404 26.8646 59.8404 27.2396 59.8456 27.6198C59.8456 27.7187 59.8456 27.8177 59.8456 27.9219C59.8456 28.1719 59.8508 28.4219 59.8508 28.6667C59.7154 28.7344 59.7154 28.7344 59.58 28.8021C59.58 26.2813 59.58 23.7552 59.58 21.1562Z" fill="#5B5C4F"/>
<path d="M20.2675 41.5052C20.5227 41.5365 20.5227 41.5365 20.7831 41.5729C21.5279 41.6458 22.2675 41.6563 23.0175 41.6563C23.1894 41.6563 23.1894 41.6563 23.3613 41.6615C24.0279 41.6563 24.6738 41.6146 25.3352 41.5365C25.679 41.4948 26.0227 41.4896 26.3717 41.4948C26.5435 41.5 26.5435 41.5 26.7206 41.5C26.8092 41.5 26.8925 41.5052 26.981 41.5052C26.7988 41.5469 26.6165 41.5937 26.429 41.6406C26.429 41.7292 26.429 41.8229 26.429 41.9115C25.8404 41.9635 25.2519 42.0104 24.6581 42.0573C24.4915 42.0729 24.3248 42.0885 24.1581 42.1042C23.2415 42.1719 22.4081 42.1719 21.5019 42.0521C21.3665 42.1198 21.3665 42.1198 21.2258 42.1875C20.9029 42.0573 20.5852 41.9219 20.2675 41.776C20.2675 41.6875 20.2675 41.599 20.2675 41.5052Z" fill="#4D4C43"/>
<path d="M50.2623 24.026C50.3092 24.026 50.356 24.026 50.4029 24.026C50.4081 24.1458 50.4185 24.2708 50.4238 24.3958C50.4394 24.5573 50.4498 24.724 50.4602 24.8958C50.4706 25.0573 50.481 25.2188 50.4967 25.3854C50.5123 25.6615 50.5383 25.9375 50.5748 26.2188C50.7206 27.4219 50.6894 28.6302 50.6842 29.8438C50.6842 30.0781 50.6842 30.3073 50.679 30.5365C50.679 31.099 50.679 31.6563 50.6738 32.2188C50.3456 31.8906 50.2675 31.6615 50.2467 31.2031C50.2467 31.0677 50.2467 30.9375 50.2467 30.7969C50.2467 30.651 50.2467 30.5 50.2467 30.3438C50.2467 30.1823 50.2519 30.0208 50.2519 29.8542C50.2519 29.6875 50.2519 29.5208 50.2519 29.349C50.2519 28.8177 50.2519 28.2865 50.2571 27.7552C50.2571 27.3958 50.2571 27.0365 50.2571 26.6719C50.2571 25.7917 50.2623 24.9063 50.2623 24.026Z" fill="#5D5F4B"/>
<path d="M24.2415 2.58333C24.1946 2.71875 24.1477 2.85416 24.1008 2.99479C23.9863 3 23.8717 3.00521 23.7519 3.01041C22.5644 3.07292 21.4081 3.21354 20.2415 3.40104C19.6946 3.48958 19.179 3.56771 18.6217 3.54167C18.6217 3.40625 18.6217 3.27083 18.6217 3.13021C19.6321 2.90104 20.6321 2.78125 21.6633 2.70312C21.8769 2.6875 21.8769 2.6875 22.0956 2.66666C22.8144 2.60937 23.5227 2.57292 24.2415 2.58333Z" fill="#5A5951"/>
<path d="M8.62688 9.54688C8.71542 9.64063 8.80396 9.72917 8.89771 9.82292C8.81959 9.9375 8.74147 10.0521 8.65813 10.1667C8.37688 10.5677 8.10084 10.9687 7.8248 11.3698C7.69459 11.5573 7.56438 11.7448 7.42897 11.9323C6.87167 12.7344 6.44459 13.5833 6.02271 14.4635C5.97584 14.4635 5.93417 14.4635 5.8873 14.4635C5.93938 13.6094 6.24667 13.0521 6.6998 12.3333C6.8248 12.1302 6.9498 11.9323 7.06959 11.7292C7.12688 11.6354 7.18417 11.5417 7.24667 11.4427C7.40813 11.1719 7.40813 11.1719 7.54876 10.7969C7.67897 10.474 7.80396 10.3438 8.08521 10.1406C8.49146 9.86458 8.49146 9.86458 8.62688 9.54688Z" fill="#4F4E47"/>
<path d="M34.2363 38.3646C34.5071 38.5 34.7831 38.6354 35.0592 38.7708C35.106 38.6823 35.1529 38.5938 35.1998 38.5C35.3352 38.5885 35.4758 38.6771 35.6165 38.7656C36.4602 39.1979 37.4185 39.1563 38.3456 39.1823C38.3456 39.3177 38.3456 39.4531 38.3456 39.5938C38.481 39.6354 38.6165 39.6823 38.7571 39.7292C38.6685 39.8177 38.58 39.9115 38.4863 40C38.3508 39.9115 38.2154 39.8229 38.0748 39.7292C37.7988 39.724 37.5279 39.724 37.2519 39.7292C37.205 39.6823 37.1633 39.6406 37.1165 39.5938C36.9029 39.5729 36.6946 39.5521 36.481 39.5417C35.83 39.4844 35.3717 39.3281 34.7883 39.0469C34.606 38.9948 34.4238 38.9479 34.2363 38.9115C34.2363 38.7292 34.2363 38.5469 34.2363 38.3646Z" fill="#BAB6AB"/>
<path d="M32.1842 4.77084C33.1321 4.92188 33.9706 5.63021 34.7258 6.1875C34.8144 6.25 34.8977 6.3125 34.9915 6.375C35.5696 6.79688 36.0696 7.25521 36.5644 7.77604C36.5227 7.86459 36.4758 7.95313 36.429 8.04688C36.2623 7.91667 36.2623 7.91667 36.0904 7.78125C34.7935 6.77604 33.5071 5.80729 32.0488 5.04167C32.0904 4.95313 32.1373 4.86459 32.1842 4.77084Z" fill="#55544C"/>
<path d="M59.4394 29.8958C59.4863 29.8958 59.5331 29.8958 59.58 29.8958C59.6217 30.2135 59.6685 30.526 59.7154 30.8542C59.804 30.6719 59.8977 30.4896 59.9863 30.3073C59.9863 32.3802 59.9863 34.4531 59.9863 36.5885C59.9446 36.5885 59.8977 36.5885 59.8508 36.5885C59.804 35.5052 59.7623 34.4271 59.7154 33.3125C59.6217 33.3125 59.5331 33.3125 59.4394 33.3125C59.4394 32.1823 59.4394 31.0573 59.4394 29.8958Z" fill="#797B6E"/>
<path d="M59.4394 22.9323C59.4863 22.9323 59.5331 22.9323 59.58 22.9323C59.6217 24.4635 59.6685 25.9948 59.7154 27.5729C59.7154 27.2135 59.7154 26.8542 59.7154 26.4844C59.804 26.3906 59.8977 26.3021 59.9863 26.2083C59.9863 27.5156 59.9863 28.8229 59.9863 30.1719C59.7154 30.0313 59.7154 30.0313 59.5644 29.6354C59.3925 28.974 59.4081 28.3177 59.4133 27.6406C59.4133 27.5052 59.4133 27.3698 59.4133 27.2292C59.4185 26.8021 59.4185 26.375 59.4238 25.9427C59.4238 25.651 59.4238 25.3594 59.429 25.0677C59.429 24.3594 59.4342 23.6458 59.4394 22.9323Z" fill="#74766A"/>
<path d="M38.3456 39.3177C38.6633 39.3646 38.981 39.4115 39.304 39.4583C39.5019 40 39.6373 40.5208 39.7154 41.0938C39.6269 41.0938 39.5383 41.0938 39.4446 41.0938C39.4342 41.1771 39.4185 41.2656 39.4081 41.349C39.304 41.6406 39.304 41.6406 39.0592 41.8125C38.7571 41.9115 38.7571 41.9115 38.2102 41.9115C38.2102 42.0052 38.2102 42.0938 38.2102 42.1875C38.0748 42.1406 37.9394 42.099 37.7987 42.0521C37.7519 41.9167 37.7102 41.7813 37.6633 41.6406C37.8144 41.6042 37.9602 41.5677 38.1165 41.5313C38.5852 41.3802 38.7258 41.3073 39.0331 40.9583C39.1217 40.9583 39.2154 40.9583 39.304 40.9583C39.1008 40.2083 39.1008 40.2083 38.5956 39.6615C38.5123 39.6406 38.4342 39.6146 38.3456 39.5938C38.3456 39.5 38.3456 39.4115 38.3456 39.3177Z" fill="#C7C3AD"/>
<path d="M50.1269 20.8854C50.2623 20.9271 50.3977 20.974 50.5383 21.0208C50.6425 22.1458 50.6946 23.2708 50.6998 24.401C50.705 24.5781 50.705 24.5781 50.705 24.7656C50.705 24.875 50.705 24.9896 50.705 25.1042C50.705 25.2083 50.705 25.3073 50.7102 25.4115C50.6738 25.6615 50.6738 25.6615 50.4029 25.9375C50.3092 24.2708 50.2206 22.6042 50.1269 20.8854Z" fill="#6C6E4A"/>
<path d="M13.6946 31.5365C13.9342 31.5573 14.1737 31.5729 14.4133 31.5938C14.6112 31.6094 14.6112 31.6094 14.8144 31.6302C15.1998 31.6719 15.1998 31.6719 15.4498 31.7396C15.8092 31.8229 16.1529 31.8385 16.5227 31.8542C16.6685 31.8594 16.8144 31.8646 16.9654 31.8698C17.1165 31.875 17.2675 31.8802 17.4237 31.8854C17.6581 31.8958 17.6581 31.8958 17.8925 31.901C18.2727 31.9167 18.6529 31.9323 19.0331 31.9427C18.4862 32.25 18.0071 32.2604 17.3925 32.25C17.2883 32.25 17.1842 32.25 17.08 32.25C15.9185 32.2292 14.7831 32.0938 13.6946 31.6719C13.6946 31.625 13.6946 31.5833 13.6946 31.5365Z" fill="#5C5B53"/>
<path d="M32.731 20.474C33.0748 20.4063 33.0748 20.4063 33.554 20.474C33.8508 20.7135 34.1008 20.9792 34.3613 21.2604C34.6373 21.5573 34.9238 21.8125 35.231 22.0677C35.4029 22.2188 35.5748 22.3698 35.7467 22.5208C35.9133 22.6719 35.9133 22.6719 36.0852 22.8229C36.429 23.4583 36.3352 24.1354 36.2935 24.8438C36.2467 24.8438 36.205 24.8438 36.1581 24.8438C36.1633 24.7396 36.1685 24.6406 36.179 24.5313C36.1425 23.4427 35.8352 22.9271 35.0696 22.1771C34.0331 21.1719 34.0331 21.1719 32.731 20.6094C32.731 20.5677 32.731 20.5208 32.731 20.474Z" fill="#4E4F46"/>
<path d="M78.0696 20.3385C78.3508 20.3281 78.6321 20.3177 78.9185 20.3125C79.0748 20.3073 79.231 20.3021 79.3925 20.2969C79.8925 20.3437 80.1425 20.4375 80.5331 20.7448C80.6633 21.1406 80.679 21.3333 80.6529 21.7344C80.6477 21.8437 80.6425 21.9531 80.6321 22.0677C80.6269 22.1823 80.6165 22.2917 80.6112 22.4115C80.606 22.526 80.5956 22.6406 80.5904 22.7604C80.5696 23.0469 80.554 23.3281 80.5331 23.6146C80.4862 23.6146 80.4446 23.6146 80.3977 23.6146C80.3717 23.3594 80.3717 23.3594 80.3404 23.0938C80.3196 22.8698 80.2935 22.6458 80.2675 22.4219C80.2571 22.3073 80.2467 22.1927 80.231 22.0781C80.2206 21.9687 80.2102 21.8594 80.1946 21.75C80.1842 21.6458 80.1737 21.5469 80.1633 21.4427C80.1217 21.1094 80.1217 21.1094 79.9862 20.6094C79.0383 20.5417 79.0383 20.5417 78.0696 20.474C78.0696 20.4271 78.0696 20.3854 78.0696 20.3385Z" fill="#737562"/>
<path d="M4.24146 22.1146C4.28833 22.1146 4.33521 22.1146 4.37687 22.1146C4.42375 22.5417 4.47062 22.9635 4.5175 23.3906C4.53833 23.5729 4.53833 23.5729 4.55396 23.7552C4.6425 24.5729 4.66854 25.3854 4.65292 26.2083C4.2675 25.8802 4.24146 25.8125 4.16854 25.2656C4.15812 25.0521 4.14771 24.8385 4.13729 24.6198C4.13208 24.5104 4.13208 24.401 4.12687 24.2865C4.09562 23.5469 4.12166 22.8438 4.24146 22.1146Z" fill="#57564B"/>
<path d="M47.3873 34.8125C47.6998 35.1146 47.9706 35.4115 48.2363 35.7604C48.6685 36.2917 49.2467 36.5625 49.8508 36.8594C49.8508 36.9063 49.8508 36.9531 49.8508 37C49.4133 37.0625 49.1269 37.0573 48.7467 36.8177C48.5592 36.6719 48.3717 36.526 48.1842 36.3698C47.929 36.151 47.929 36.151 47.5227 36.0417C47.2154 35.3281 47.2154 35.3281 47.3873 34.8125Z" fill="#5B5C4F"/>
<path d="M56.2883 20.474C56.7571 20.4635 57.2258 20.4635 57.6946 20.4583C57.8248 20.4531 57.9602 20.4531 58.0956 20.4479C58.2258 20.4479 58.3508 20.4479 58.4862 20.4479C58.6008 20.4479 58.7206 20.4427 58.8404 20.4427C59.1998 20.4792 59.4133 20.5521 59.7154 20.7448C59.9915 21.3438 60.0123 21.8698 59.9862 22.5208C59.6581 22.026 59.6946 21.7448 59.7154 21.1563C58.9029 21.0208 58.9029 21.0208 58.0696 20.8854C58.0696 20.8385 58.0696 20.7917 58.0696 20.7448C57.481 20.7031 56.8977 20.6563 56.2883 20.6094C56.2883 20.5677 56.2883 20.5208 56.2883 20.474Z" fill="#797A6B"/>
<path d="M26.981 41.5052C26.7988 41.5469 26.6165 41.5938 26.429 41.6406C26.429 41.7292 26.429 41.8229 26.429 41.9115C24.6685 42.0469 24.6685 42.0469 22.8717 42.1875C22.8717 42.099 22.8717 42.0052 22.8717 41.9115C22.9654 41.9063 23.0644 41.8958 23.1633 41.8906C23.356 41.8698 23.356 41.8698 23.5488 41.8542C23.6738 41.8438 23.7988 41.8333 23.929 41.8229C24.2363 41.8125 24.2363 41.8125 24.3769 41.6406C25.2467 41.5156 26.1008 41.4896 26.981 41.5052Z" fill="#59584F"/>
<path d="M31.4967 40C31.6842 40.1042 31.8717 40.2083 32.054 40.3073C32.1685 40.3698 32.2831 40.4323 32.3977 40.4948C32.5956 40.6094 32.7935 40.724 32.9863 40.849C33.606 41.2344 34.0748 41.2969 34.7883 41.3698C35.1269 41.5104 35.1269 41.5104 35.3352 41.6406C34.7727 41.9219 34.2779 41.8333 33.6998 41.651C32.7467 41.2708 32.0852 40.8594 31.3613 40.1406C31.4081 40.0937 31.455 40.0469 31.4967 40Z" fill="#AAA79D"/>
<path d="M23.83 33.0365C24.2258 33.4115 24.554 33.7708 24.856 34.224C25.4498 35.0417 26.304 35.5938 27.1165 36.1771C26.2935 36.1771 25.6633 35.5417 25.0956 35C24.5019 34.3698 24.0592 33.8906 23.83 33.0365Z" fill="#54544C"/>
<path d="M86.6998 33.7188C86.7415 33.8125 86.7883 33.901 86.8352 33.9948C86.9238 34.0365 87.0175 34.0833 87.106 34.1302C87.0904 34.5573 87.0696 34.9844 87.0488 35.4115C87.0435 35.5313 87.0383 35.651 87.0331 35.776C87.0279 35.8958 87.0227 36.0104 87.0123 36.1302C87.0123 36.2396 87.0071 36.3437 87.0019 36.4531C86.9706 36.724 86.9706 36.724 86.8352 37C86.606 37 86.3821 37 86.1477 37C86.2154 36.9427 86.2831 36.8906 86.3508 36.8333C86.6217 36.5156 86.6165 36.3333 86.6321 35.9219C86.6373 35.7292 86.6373 35.7292 86.6477 35.5313C86.6477 35.401 86.6529 35.2656 86.6529 35.1302C86.6581 34.9948 86.6633 34.8594 86.6685 34.7188C86.679 34.3854 86.6894 34.0521 86.6998 33.7188Z" fill="#585A4C"/>
<path d="M38.3456 9.6875C38.8456 10.0469 39.1685 10.3646 39.4446 10.9167C39.4446 11.0052 39.4446 11.0937 39.4446 11.1875C39.6217 11.2344 39.804 11.276 39.9915 11.3229C39.9915 11.5521 39.9915 11.776 39.9915 12.0052C39.5019 11.8125 39.304 11.5833 39.0227 11.1458C38.9185 10.9792 38.9185 10.9792 38.8144 10.8125C38.3873 10.125 38.3873 10.125 38.2102 9.82292C38.2571 9.77604 38.2987 9.73437 38.3456 9.6875Z" fill="#4B4A43"/>
<path d="M8.21542 20.8854C8.30396 20.8854 8.39771 20.8854 8.48625 20.8854C8.35083 22.25 8.21542 23.6146 8.07479 24.9792C8.03313 24.9792 7.98625 24.9792 7.93937 24.9792C7.88729 22.1771 7.88729 22.1771 8.21542 20.8854Z" fill="#CFCEC6"/>
<path d="M62.8665 20.474C63.3352 20.4635 63.7987 20.4531 64.2675 20.4479C64.4654 20.4427 64.4654 20.4427 64.6685 20.4375C64.8612 20.4375 64.8612 20.4375 65.0592 20.4323C65.1737 20.4323 65.2935 20.4271 65.4133 20.4271C65.8196 20.4844 66.0019 20.5937 66.2883 20.8854C66.3404 21.1458 66.3404 21.1458 66.3144 21.4323C66.304 21.5365 66.2987 21.6406 66.2883 21.7448C66.2779 21.8542 66.2675 21.9583 66.2571 22.0677C66.2467 22.1771 66.2362 22.2865 66.2258 22.401C66.205 22.6667 66.179 22.9375 66.1529 23.2031C66.106 23.2031 66.0644 23.2031 66.0175 23.2031C65.9706 22.3958 65.9237 21.5833 65.8769 20.7448C64.8821 20.7031 63.8873 20.6562 62.8665 20.6094C62.8665 20.5677 62.8665 20.5208 62.8665 20.474Z" fill="#707364"/>
<path d="M4.92895 16.7865C5.06958 17.2292 5.05395 17.5365 4.955 17.9896C4.92895 18.1094 4.90291 18.2292 4.87166 18.349C4.7675 18.7917 4.6477 19.224 4.5175 19.6563C4.24145 19.2708 4.24145 19.0938 4.29354 18.6146C4.3352 18.4323 4.37166 18.25 4.41333 18.0677C4.43937 17.9271 4.43937 17.9271 4.47062 17.7865C4.61645 17.099 4.61645 17.099 4.92895 16.7865Z" fill="#53534B"/>
<path d="M91.2154 27.1667C91.3508 27.1667 91.4863 27.1667 91.6269 27.1667C91.8613 27.4688 92.0644 27.7552 92.2623 28.0781C92.3196 28.1667 92.3717 28.25 92.429 28.3385C92.731 28.8073 92.9342 29.1979 92.9967 29.7604C92.4967 29.3073 92.1581 28.7969 91.7988 28.2344C91.7415 28.1458 91.6894 28.0573 91.6269 27.9688C91.2154 27.3229 91.2154 27.3229 91.2154 27.1667Z" fill="#616354"/>
<path d="M119.981 25.2552C120.07 25.2552 120.163 25.2552 120.257 25.2552C120.408 25.7135 120.408 26.0573 120.403 26.5417C120.403 26.7969 120.403 26.7969 120.403 27.0573C120.403 27.2396 120.403 27.4167 120.403 27.599C120.398 27.7813 120.398 27.9635 120.398 28.1458C120.398 28.5938 120.393 29.0417 120.393 29.4844C120.346 29.4844 120.304 29.4844 120.257 29.4844C120.163 28.0885 120.075 26.6927 119.981 25.2552Z" fill="#535445"/>
<path d="M79.5748 24.4323C79.5748 24.4792 79.5748 24.526 79.5748 24.5729C79.4394 24.5677 79.3092 24.5625 79.1685 24.5573C77.8248 24.526 77.8248 24.526 76.5383 24.9062C76.2258 25 76.0435 24.9479 75.7415 24.8437C76.7727 24.0208 78.3352 24.1406 79.5748 24.4323Z" fill="#545445"/>
<path d="M21.3612 26.3438C21.4081 26.3438 21.455 26.3438 21.5019 26.3438C21.5175 26.4427 21.5331 26.5365 21.5487 26.6354C21.5748 26.7604 21.5956 26.8854 21.6217 27.0104C21.6425 27.1354 21.6633 27.2604 21.6894 27.3854C21.7519 27.7344 21.7519 27.7344 22.0487 27.9844C22.0852 28.3281 22.0852 28.3281 22.08 28.7344C22.0852 28.8698 22.0852 29.0052 22.0852 29.1406C22.0487 29.4844 22.0487 29.4844 21.7727 29.7604C21.7727 29.5625 21.7675 29.3698 21.7675 29.1719C21.7623 29.0625 21.7623 28.9531 21.7623 28.8385C21.7727 28.5313 21.7727 28.5313 21.9133 28.1198C21.8196 28.1198 21.731 28.1198 21.6373 28.1198C21.3612 27.8698 21.2362 27.6719 21.1946 27.3021C21.1946 27.026 21.2102 26.7552 21.2258 26.4844C21.2727 26.4375 21.3144 26.3906 21.3612 26.3438Z" fill="#5A5A51"/>
<path d="M14.2415 18.2865C14.2883 18.2865 14.33 18.2865 14.3769 18.2865C14.5435 19.1823 14.6633 20.1198 14.5175 21.0208C14.2467 21.3906 13.955 21.6198 13.554 21.8385C13.7206 21.5 13.8925 21.1979 14.106 20.8854C14.1529 20.5938 14.1529 20.5938 14.1581 20.276C14.1685 20.1615 14.1737 20.0469 14.179 19.9271C14.1842 19.7448 14.1842 19.7448 14.1894 19.5625C14.1998 19.3802 14.1998 19.3802 14.205 19.1927C14.2206 18.8906 14.231 18.5885 14.2415 18.2865Z" fill="#53534B"/>
<path d="M30.2675 13.375C30.7154 13.4115 30.9238 13.4896 31.2779 13.7813C31.5904 14.3594 31.5383 14.7969 31.3613 15.4219C31.1581 15.7708 31.1581 15.7708 30.8144 15.9687C30.3977 16.0104 29.9967 16 29.58 15.9687C29.58 15.9219 29.58 15.875 29.58 15.8333C29.8404 15.8125 29.8404 15.8125 30.106 15.7969C30.4915 15.7448 30.6425 15.724 30.9498 15.474C31.1425 15.0156 31.1477 14.6823 31.0904 14.1927C30.8456 13.8698 30.8456 13.8698 30.5383 13.6458C30.4498 13.5573 30.3613 13.4635 30.2675 13.375Z" fill="#52534B"/>
<path d="M66.0175 35.7708C66.2258 36.099 66.2883 36.2813 66.2727 36.6719C66.1529 37 66.1529 37 65.9081 37.151C65.5852 37.2813 65.356 37.3021 65.0123 37.2969C64.9029 37.2969 64.7935 37.2969 64.679 37.2969C64.5644 37.2917 64.455 37.2917 64.3352 37.2865C64.2206 37.2865 64.106 37.2865 63.9863 37.2865C63.705 37.2813 63.4238 37.276 63.1373 37.2708C63.1373 37.224 63.1373 37.1823 63.1373 37.1354C63.33 37.125 63.33 37.125 63.5279 37.1146C63.7831 37.099 63.7831 37.099 64.0488 37.0833C64.2154 37.0729 64.3821 37.0625 64.5592 37.0521C65.0331 37 65.429 36.8958 65.8769 36.724C65.9238 36.4115 65.9706 36.0938 66.0175 35.7708Z" fill="#6E7060"/>
<path d="M6.43417 31.6719C6.98626 31.8542 7.1373 32.2135 7.41855 32.6875C7.47063 32.7708 7.51751 32.849 7.56959 32.9375C7.93938 33.5469 7.93938 33.5469 7.93938 33.8594C7.69459 33.8333 7.69459 33.8333 7.39251 33.7188C7.16334 33.3958 7.16334 33.3958 6.95501 32.9948C6.8873 32.8646 6.81438 32.7292 6.74667 32.5938C6.60084 32.2813 6.50188 32.0104 6.43417 31.6719Z" fill="#514F48"/>
<path d="M41.7727 28.9427C41.8613 29.0313 41.955 29.1198 42.0435 29.2135C41.8508 29.875 41.5904 30.4115 41.2258 30.9896C41.0904 31.0573 41.0904 31.0573 40.9498 31.125C40.9498 31.2135 40.9498 31.3073 40.9498 31.401C40.8613 31.401 40.7675 31.401 40.6738 31.401C40.8821 30.8854 41.0904 30.375 41.2988 29.8646C41.3613 29.7188 41.4185 29.5729 41.481 29.4271C41.6373 29.0781 41.6373 29.0781 41.7727 28.9427Z" fill="#54534B"/>
<path d="M46.705 20.6094C47.5592 20.6094 48.4185 20.6094 49.304 20.6094C49.304 20.7031 49.304 20.7917 49.304 20.8854C49.1425 20.8906 48.981 20.901 48.8144 20.9063C48.6008 20.9219 48.3873 20.9323 48.1737 20.9427C48.0696 20.9479 47.9602 20.9531 47.8508 20.9583C47.6998 20.9687 47.6998 20.9687 47.5383 20.9792C47.3977 20.9844 47.3977 20.9844 47.2519 20.9896C46.9654 21.0208 46.705 21.0833 46.429 21.1563C46.5175 20.974 46.6112 20.7969 46.705 20.6094Z" fill="#5A5B4C"/>
<path d="M27.3925 2.71875C27.4342 2.85417 27.481 2.98958 27.5279 3.13021C27.5696 3.04167 27.6165 2.95313 27.6633 2.85938C27.7519 2.85938 27.8456 2.85938 27.9394 2.85938C27.9394 2.99479 27.9394 3.13021 27.9394 3.26563C28.1165 3.26563 28.2988 3.26563 28.4863 3.26563C28.4863 3.35938 28.4863 3.44792 28.4863 3.54167C27.7206 3.47396 27.0227 3.36458 26.2935 3.13021C26.705 2.85938 26.705 2.85938 27.0748 2.91146C27.179 2.9375 27.2831 2.96354 27.3925 2.99479C27.3925 2.90625 27.3925 2.8125 27.3925 2.71875Z" fill="#4E4E47"/>
<path d="M112.585 23.4792C113.215 23.4792 113.851 23.4792 114.502 23.4792C114.455 23.5677 114.413 23.6563 114.366 23.75C114.012 23.8385 114.012 23.8385 113.679 23.8854C113.637 24.0208 113.59 24.1563 113.544 24.2969C113.361 24.25 113.184 24.2083 112.997 24.1615C112.997 24.0729 112.997 23.9792 112.997 23.8854C112.814 23.8438 112.632 23.7969 112.45 23.75C112.491 23.6615 112.538 23.5729 112.585 23.4792Z" fill="#56574C"/>
<path d="M37.9342 35.4948C37.6477 36.1823 37.1842 36.724 36.5644 37.1354C36.429 37.0885 36.2935 37.0417 36.1581 37C36.4029 36.7448 36.6477 36.4948 36.8925 36.2448C36.9602 36.1771 37.0331 36.1042 37.1008 36.0313C37.6321 35.4948 37.6321 35.4948 37.9342 35.4948Z" fill="#595850"/>
<path d="M77.3821 20.474C77.7831 20.4375 78.1477 20.4219 78.5488 20.4323C78.7102 20.4323 78.7102 20.4323 78.8717 20.4323C79.6738 20.4375 79.6738 20.4375 79.9863 20.7448C78.5644 20.8125 78.5644 20.8125 77.1113 20.8854C77.1998 20.75 77.2883 20.6146 77.3821 20.474Z" fill="#555646"/>
<path d="M21.3613 3.26562C21.0331 3.3125 20.705 3.35937 20.3769 3.40625C20.2883 3.41666 20.1946 3.43229 20.1008 3.4427C19.606 3.51041 19.1217 3.55729 18.6217 3.54166C18.6217 3.40625 18.6217 3.27083 18.6217 3.1302C20.6113 2.84896 20.6113 2.84896 21.3613 3.26562Z" fill="#54534B"/>
<path d="M113.544 26.6198C113.59 26.7969 113.632 26.9792 113.679 27.1667C114.491 27.2083 115.309 27.2552 116.148 27.3021C116.148 27.349 116.148 27.3906 116.148 27.4375C114.788 27.4375 113.434 27.4375 112.038 27.4375C112.038 27.3958 112.038 27.349 112.038 27.3021C112.122 27.2969 112.21 27.2969 112.299 27.2917C112.408 27.2813 112.523 27.276 112.637 27.2656C112.747 27.2604 112.856 27.2552 112.971 27.25C113.294 27.1927 113.294 27.1927 113.445 26.8854C113.476 26.7969 113.512 26.7083 113.544 26.6198Z" fill="#7F807E"/>
<path d="M33.2779 37.1354C33.3717 37.1354 33.4602 37.1354 33.554 37.1354C33.7883 37.375 33.7883 37.375 34.0488 37.6823C34.1373 37.7813 34.2206 37.8854 34.3144 37.9896C34.3769 38.0677 34.4446 38.1458 34.5123 38.2292C34.7363 38.1354 34.9654 38.0469 35.1998 37.9531C35.1529 38.224 35.106 38.4948 35.0592 38.7708C34.4498 38.5833 34.1217 38.2813 33.6894 37.8177C33.606 37.7396 33.5279 37.6667 33.4446 37.5885C33.2779 37.4063 33.2779 37.4063 33.2779 37.1354Z" fill="#5A5A51"/>
<path d="M13.6946 5.72396C13.6113 5.78125 13.5279 5.83334 13.4446 5.89063C13.3352 5.96354 13.2258 6.03646 13.1113 6.10938C13.0019 6.18229 12.8925 6.25 12.7831 6.32813C12.4863 6.52604 12.1998 6.73438 11.9133 6.95313C11.8196 6.91146 11.731 6.86459 11.6373 6.81771C12.1269 6.11979 12.7883 5.42188 13.6946 5.72396Z" fill="#525149"/>
<path d="M16.4342 40.5469C17.2102 40.6979 17.9029 40.8958 18.6217 41.2292C18.6217 41.276 18.6217 41.3229 18.6217 41.3698C17.9029 41.4115 17.4602 41.3333 16.8456 40.9583C16.705 40.8229 16.5644 40.6875 16.4342 40.5469Z" fill="#545347"/>
<path d="M17.1165 3.94792C16.7779 4.28646 16.4602 4.40625 16.0227 4.58854C15.8769 4.65104 15.7258 4.71354 15.5748 4.78125C15.4498 4.82292 15.33 4.86458 15.1998 4.90625C15.1113 4.85937 15.0175 4.81771 14.9238 4.77083C15.2467 4.29167 15.4133 4.23958 15.9446 4.05208C16.0748 4.00521 16.2102 3.95312 16.3456 3.90625C16.705 3.8125 16.705 3.8125 17.1165 3.94792Z" fill="#53524A"/>
<path d="M38.3456 39.3177C38.6633 39.3646 38.981 39.4115 39.304 39.4583C39.4863 39.9479 39.58 40.2865 39.58 40.8229C39.4915 40.8229 39.3977 40.8229 39.304 40.8229C39.2519 40.6719 39.1946 40.5156 39.1373 40.3594C38.9863 40.0052 38.929 39.8906 38.5956 39.6667C38.5123 39.6458 38.4342 39.6198 38.3456 39.5938C38.3456 39.5 38.3456 39.4115 38.3456 39.3177Z" fill="#ACA99F"/>
<path d="M5.47583 29.349C5.79354 29.6406 6.01229 29.901 6.15812 30.3073C6.10604 30.6146 6.10604 30.6146 6.02271 30.8542C6.02271 30.7604 6.02271 30.6719 6.02271 30.5781C5.93416 30.5781 5.84041 30.5781 5.74666 30.5781C5.705 30.6719 5.65812 30.7604 5.61125 30.8542C5.33521 30.2969 5.33521 29.9531 5.47583 29.349Z" fill="#3F3F39"/>
<path d="M100.127 13.3594C100.247 13.3594 100.366 13.3594 100.491 13.3594C100.616 13.3594 100.747 13.3594 100.882 13.3594C101.018 13.3594 101.153 13.3646 101.294 13.3646C101.429 13.3646 101.564 13.3646 101.705 13.3646C102.044 13.3698 102.382 13.3698 102.721 13.375C102.721 13.4167 102.721 13.4635 102.721 13.5104C102.559 13.5156 102.398 13.5208 102.231 13.526C102.018 13.5313 101.804 13.5417 101.59 13.5521C101.486 13.5573 101.382 13.5573 101.273 13.5625C100.663 13.5885 100.309 13.6302 99.8456 14.0573C99.7571 14.0573 99.6633 14.0573 99.5748 14.0573C99.7258 13.3802 99.7258 13.3802 100.127 13.3594Z" fill="#555546"/>
<path d="M8.35084 34.2656C8.58001 34.4948 8.80917 34.724 9.03834 34.9479C9.12167 35.0208 9.20501 35.0885 9.29355 35.1615C9.37167 35.2604 9.37167 35.2604 9.44459 35.3594C9.40292 35.5417 9.35605 35.7187 9.30917 35.9063C8.9498 35.5 8.58522 35.0938 8.21542 34.6771C8.25709 34.5417 8.30397 34.4063 8.35084 34.2656Z" fill="#55524B"/>
<path d="M86.8352 31.8073C86.9237 31.8073 87.0175 31.8073 87.106 31.8073C87.106 32.5313 87.106 33.25 87.106 33.9948C87.0175 33.9948 86.929 33.9948 86.8352 33.9948C86.6373 33.6042 86.679 33.2604 86.679 32.8229C86.679 32.6615 86.679 32.5052 86.679 32.3385C86.6998 31.9427 86.6998 31.9427 86.8352 31.8073Z" fill="#5E6051"/>
<path d="M42.731 25.1146C42.7779 25.1146 42.8196 25.1146 42.8665 25.1146C42.8977 25.9479 42.8717 26.651 42.5956 27.4375C42.5019 27.349 42.4133 27.2604 42.3196 27.1667C42.3665 26.4479 42.5175 25.8021 42.731 25.1146Z" fill="#57564D"/>
<path d="M9.17375 28.3958C9.86125 28.9792 10.5488 29.5729 11.2258 30.1719C11.0904 30.2396 11.0904 30.2396 10.955 30.3073C10.2571 29.8229 9.67375 29.3542 9.17375 28.6667C9.17375 28.5781 9.17375 28.4896 9.17375 28.3958Z" fill="#56564D"/>
<path d="M29.6269 13.4063C29.7363 13.4583 29.7363 13.4583 29.856 13.5104C29.7206 13.599 29.5904 13.6823 29.455 13.776C29.0644 14.0156 29.0644 14.0156 28.8977 14.1927C28.8456 14.5104 28.7988 14.8281 28.7571 15.1458C28.6685 15.1458 28.58 15.1458 28.4863 15.1458C28.5123 14.0469 28.5123 14.0469 28.9394 13.5625C29.3092 13.375 29.3092 13.375 29.6269 13.4063Z" fill="#58594F"/>
<path d="M30.9498 39.5938C31.0435 39.5938 31.1321 39.5938 31.2258 39.5938C31.3144 39.7708 31.4081 39.9531 31.4967 40.1406C31.2154 40.5208 31.0696 40.5521 30.5852 40.6406C30.4342 40.6563 30.2831 40.6719 30.1269 40.6823C30.3404 40.474 30.554 40.2656 30.7727 40.0625C30.981 39.875 30.981 39.875 30.9498 39.5938Z" fill="#53534A"/>
<path d="M24.7883 21.2917C24.8769 21.3385 24.9706 21.3854 25.0592 21.4323C24.955 21.7656 24.8508 22.0938 24.7467 22.4271C24.7154 22.5208 24.6842 22.6146 24.6581 22.7135C24.3769 23.5729 24.3769 23.5729 23.9654 23.8854C24.1946 23 24.4498 22.1458 24.7883 21.2917Z" fill="#53544B"/>
<path d="M26.981 31.5365C27.0696 31.5365 27.1581 31.5365 27.2519 31.5365C27.2519 31.625 27.2519 31.7135 27.2519 31.8073C27.679 32.0521 28.0331 32.1302 28.5175 32.1667C28.705 32.1823 28.705 32.1823 28.8925 32.1979C29.0279 32.2083 29.0279 32.2083 29.1685 32.2188C28.6581 32.5573 28.4081 32.5521 27.7988 32.4896C27.3352 32.1979 27.1529 32.0573 26.981 31.5365Z" fill="#53534B"/>
<path d="M110.122 30.0312C110.663 30.0312 111.205 30.0312 111.762 30.0312C111.715 30.125 111.674 30.2135 111.627 30.3073C111.101 30.4115 110.768 30.474 110.257 30.3073C110.163 30.4844 110.075 30.6667 109.981 30.8542C110.028 30.5833 110.075 30.3125 110.122 30.0312Z" fill="#5A5B4D"/>
<path d="M5.06437 27.9844C5.44458 28.3646 5.41854 28.6979 5.47583 29.2135C5.38208 29.2135 5.29354 29.2135 5.19979 29.2135C5.24666 29.4375 5.29354 29.6667 5.34041 29.8958C5.15812 29.8958 4.97583 29.8958 4.78833 29.8958C4.8352 29.7604 4.88208 29.625 4.92896 29.4844C4.955 29.2292 4.98104 28.9687 5.00187 28.7083C5.0175 28.5729 5.02791 28.4375 5.03833 28.2969C5.04875 28.1927 5.05396 28.0937 5.06437 27.9844Z" fill="#3D3C38"/>
<path d="M40.2675 12.6875C40.5227 12.724 40.5227 12.724 40.8144 12.8281C40.9602 13.0573 40.9602 13.0573 41.0592 13.349C41.1113 13.4896 41.1113 13.4896 41.1685 13.6302C41.231 13.9583 41.1894 14.1563 41.0852 14.4635C40.9498 14.2187 40.8144 13.974 40.6738 13.7292C40.5592 13.526 40.5592 13.526 40.4446 13.3177C40.2675 12.9635 40.2675 12.9635 40.2675 12.6875Z" fill="#4D4A43"/>
<path d="M11.0904 6.95312C11.2258 7 11.3612 7.04687 11.5019 7.08854C11.08 7.63021 10.7519 8.00521 10.1321 8.31771C10.3352 7.67708 10.3352 7.67708 10.6894 7.48437C10.7779 7.44271 10.8612 7.40625 10.955 7.36458C10.9967 7.22917 11.0435 7.09375 11.0904 6.95312Z" fill="#4F4F47"/>
<path d="M24.7883 2.58334C25.8508 2.70313 25.8508 2.70313 26.1581 2.85938C26.1581 2.94792 26.1581 3.03646 26.1581 3.13021C25.5852 3.14063 25.0696 3.13021 24.5123 2.99479C24.606 2.94792 24.6946 2.90625 24.7883 2.85938C24.7883 2.76563 24.7883 2.67709 24.7883 2.58334Z" fill="#4E4C44"/>
<path d="M112.721 30.0312C113.038 30.0312 113.356 30.0312 113.679 30.0312C113.726 30.3021 113.773 30.5729 113.82 30.8542C113.502 30.8073 113.184 30.7604 112.856 30.7135C112.856 30.5833 112.856 30.4479 112.856 30.3073C112.814 30.2187 112.768 30.125 112.721 30.0312Z" fill="#505047"/>
<path d="M32.1842 17.7448C33.179 17.6563 33.179 17.6563 33.6894 18.0833C33.7831 18.1979 33.8717 18.3073 33.9654 18.4271C33.9185 18.5625 33.8717 18.6979 33.83 18.8333C33.7363 18.724 33.6477 18.6146 33.554 18.5C33.0227 18.0521 32.731 18.0521 32.0488 18.0156C32.0904 17.9271 32.1373 17.8333 32.1842 17.7448Z" fill="#54554D"/>
<path d="M128.882 15.9688C128.976 15.9688 129.064 15.9688 129.158 15.9688C129.148 16.1875 129.137 16.4063 129.122 16.625C129.116 16.7448 129.111 16.8698 129.106 16.9948C129.023 17.3333 129.023 17.3333 128.741 17.5833C128.606 17.6615 128.606 17.6615 128.471 17.7448C128.549 17.1198 128.669 16.5573 128.882 15.9688Z" fill="#A8A586"/>
<path d="M89.5748 31.2604C90.1165 31.7292 90.3769 32.2604 90.6685 32.901C90.1008 32.651 89.8769 32.349 89.5748 31.8073C89.5748 31.6302 89.5748 31.4479 89.5748 31.2604Z" fill="#5D5F4F"/>
<path d="M20.1321 9.41146C20.0852 9.50521 20.0383 9.59375 19.9915 9.6875C19.1894 9.84375 18.4758 9.80729 17.6633 9.6875C17.6633 9.64062 17.6633 9.59375 17.6633 9.54687C17.9237 9.52604 18.179 9.50521 18.4342 9.47917C18.58 9.46875 18.7206 9.45312 18.8665 9.44271C19.2935 9.41146 19.7102 9.40625 20.1321 9.41146Z" fill="#D5D3CA"/>
<path d="M20.2675 41.5052C20.7206 41.5469 21.1738 41.5938 21.6373 41.6406C21.5488 41.8229 21.455 42 21.3613 42.1875C21.0019 42.0521 20.6425 41.9167 20.2675 41.776C20.2675 41.6875 20.2675 41.599 20.2675 41.5052Z" fill="#57564A"/>
<path d="M76.9706 21.0208C76.7779 21.1562 76.58 21.2917 76.3821 21.4323C76.2154 21.5417 76.2154 21.5417 76.0488 21.6615C75.7415 21.8385 75.7415 21.8385 75.33 21.8385C75.8248 21.1667 76.1269 20.776 76.9706 21.0208Z" fill="#5A5B4C"/>
<path d="M5.74666 14.6042C5.92374 15.1198 5.81437 15.2917 5.62166 15.7865C5.56958 15.9219 5.51749 16.0573 5.4602 16.1979C5.42374 16.3021 5.38208 16.4062 5.34041 16.5156C5.29354 16.5156 5.24666 16.5156 5.19979 16.5156C5.14249 15.6562 5.2102 15.2708 5.74666 14.6042Z" fill="#504E47"/>
<path d="M30.5383 13.099C30.5383 13.1458 30.5383 13.1875 30.5383 13.2344C30.3769 13.2448 30.2206 13.2552 30.054 13.2604C29.3769 13.3385 29.0071 13.6354 28.4863 14.0573C28.6633 13.6615 28.8404 13.3802 29.1685 13.099C29.679 12.9323 30.0227 13.0104 30.5383 13.099Z" fill="#EDECE4"/>
<path d="M30.8144 24.026C31.0904 24.2969 31.0904 24.2969 31.1998 24.6146C31.4029 25.0677 31.6842 25.3281 32.0487 25.6615C31.6321 25.6146 31.4602 25.4948 31.1217 25.2292C30.8144 24.8438 30.8144 24.8438 30.7727 24.3906C30.7831 24.2708 30.7987 24.151 30.8144 24.026Z" fill="#55564D"/>
<path d="M18.8977 41.2292C19.5071 41.3646 19.5071 41.3646 20.1321 41.5052C19.6165 41.9115 19.6165 41.9115 19.3092 41.9115C19.3092 41.8229 19.3092 41.7344 19.3092 41.6406C19.1269 41.5938 18.9498 41.5521 18.7623 41.5052C18.804 41.4167 18.8508 41.3229 18.8977 41.2292Z" fill="#53514B"/>
<path d="M133.268 21.0208C133.538 21.1563 133.538 21.1563 133.695 21.5417C133.814 21.974 133.814 21.974 133.814 22.5208C133.726 22.5208 133.632 22.5208 133.538 22.5208C133.497 22.25 133.45 21.9792 133.403 21.7031C133.268 21.6563 133.132 21.6146 132.991 21.5677C133.085 21.5677 133.174 21.5677 133.268 21.5677C133.268 21.3854 133.268 21.2083 133.268 21.0208Z" fill="#A4A183"/>
<path d="M13.9654 16.7865C14.0123 16.7865 14.0592 16.7865 14.106 16.7865C14.106 17.0573 14.106 17.3281 14.106 17.6042C14.1946 17.6042 14.2831 17.6042 14.3769 17.6042C14.3352 18.1458 14.2883 18.6875 14.2415 19.2448C14.1946 19.2448 14.1529 19.2448 14.106 19.2448C14.0592 18.4323 14.0123 17.625 13.9654 16.7865Z" fill="#7B7A70"/>
<path d="M110.939 32.6302C111.116 32.7031 111.294 32.7865 111.471 32.8646C111.57 32.9115 111.669 32.9531 111.773 33C112.085 33.2031 112.174 33.3802 112.309 33.7188C111.762 33.5313 111.366 33.2917 110.939 32.901C110.939 32.8125 110.939 32.7188 110.939 32.6302Z" fill="#5A5C4E"/>
<path d="M14.106 24.5729C14.1946 24.6146 14.2831 24.6615 14.3769 24.7083C13.7363 25.3646 13.7363 25.3646 13.2258 25.4375C12.9238 25.4323 12.6269 25.4219 12.3248 25.3906C12.3248 25.3438 12.3248 25.3021 12.3248 25.2552C12.4498 25.2292 12.4498 25.2292 12.5748 25.2083C13.4081 25.0469 13.4081 25.0469 14.106 24.5729Z" fill="#EBEAE2"/>
<path d="M11.7779 22.6615C11.8665 22.7031 11.955 22.75 12.0487 22.7969C11.9133 23 11.9133 23 11.7779 23.2031C11.7154 23.4844 11.7154 23.4844 11.6894 23.776C11.6737 23.9479 11.6581 24.1198 11.6373 24.2969C11.5487 24.25 11.4602 24.2083 11.3665 24.1615C11.3144 23.1354 11.3144 23.1354 11.5696 22.7969C11.6373 22.75 11.705 22.7031 11.7779 22.6615Z" fill="#54554D"/>
<path d="M36.8404 8.31771C37.0227 8.31771 37.205 8.31771 37.3873 8.31771C37.5904 8.55729 37.5904 8.5573 37.7675 8.86459C37.8248 8.96875 37.8821 9.06771 37.9446 9.17188C37.9863 9.25 38.0279 9.33334 38.0748 9.41146C37.6633 9.41146 37.6633 9.41146 37.4446 9.20834C37.3352 9.07813 37.3352 9.07813 37.2258 8.94271C37.1529 8.85417 37.08 8.77084 37.0071 8.67709C36.8404 8.45834 36.8404 8.45834 36.8404 8.31771Z" fill="#4F4E45"/>
<path d="M13.0071 38.7708C13.5383 38.849 13.8508 39.099 14.2415 39.4583C14.2415 39.5469 14.2415 39.6354 14.2415 39.7292C13.8144 39.526 13.4029 39.3073 13.0071 39.0469C13.0071 38.9583 13.0071 38.8646 13.0071 38.7708Z" fill="#5A594E"/>
<path d="M73.5488 35.7708C73.7675 36.1146 73.83 36.2708 73.7779 36.6823C73.6842 37 73.6842 37 73.5488 37.1354C73.3196 37.1406 73.0904 37.1406 72.8613 37.1354C73.0019 36.8594 73.0019 36.8594 73.4133 36.724C73.455 36.4115 73.5019 36.0938 73.5488 35.7708Z" fill="#5C5E4E"/>
<path d="M39.1685 33.5833C39.2623 33.5833 39.3508 33.5833 39.4446 33.5833C39.3977 33.8073 39.3508 34.0365 39.304 34.2656C39.2154 34.2656 39.1269 34.2656 39.0331 34.2656C38.9863 34.401 38.9394 34.5365 38.8977 34.6771C38.7623 34.6302 38.6217 34.5885 38.4863 34.5417C38.5904 34.3802 38.6998 34.2188 38.8092 34.0625C38.8717 33.974 38.929 33.8854 38.9915 33.7917C39.08 33.6875 39.08 33.6875 39.1685 33.5833Z" fill="#5E5249"/>
<path d="M28.8977 16.5156C28.8977 17.0521 28.7102 17.1719 28.3508 17.5625C28.2467 17.6719 28.1477 17.7865 28.0383 17.8958C27.9602 17.9844 27.8821 18.0677 27.7988 18.151C27.7988 17.7448 27.7988 17.7448 28.0748 17.3333C28.1633 17.3333 28.2571 17.3333 28.3508 17.3333C28.3873 17.25 28.429 17.1667 28.4706 17.0781C28.6217 16.7865 28.6217 16.7865 28.8977 16.5156Z" fill="#515248"/>
<path d="M39.304 10.9167C39.3508 11.0052 39.3977 11.0937 39.4446 11.1875C39.7206 11.276 39.7206 11.276 39.9915 11.3229C39.9915 11.5521 39.9915 11.776 39.9915 12.0052C39.7258 11.9219 39.7258 11.9219 39.4446 11.7344C39.3404 11.3073 39.3404 11.3073 39.304 10.9167Z" fill="#515049"/>
<path d="M117.106 33.3125C117.195 33.3542 117.283 33.401 117.377 33.4479C117.2 33.4948 117.018 33.5365 116.83 33.5833C116.83 33.6719 116.83 33.7656 116.83 33.8594C116.309 34.0469 115.861 33.9479 115.325 33.8594C115.325 33.8125 115.325 33.7656 115.325 33.7188C115.419 33.7031 115.512 33.6823 115.611 33.6667C115.794 33.6302 115.794 33.6302 115.981 33.5938C116.169 33.5573 116.169 33.5573 116.356 33.5208C116.71 33.4479 116.71 33.4479 117.106 33.3125Z" fill="#737566"/>
<path d="M33.9654 18.974C34.0123 18.974 34.054 18.974 34.1008 18.974C34.1113 19.1146 34.1165 19.2604 34.1269 19.4063C34.2571 20.0156 34.455 20.2188 34.9238 20.6094C34.5592 20.5573 34.3613 20.4635 34.0592 20.25C33.83 19.9271 33.83 19.9271 33.8613 19.4167C33.8977 19.2708 33.929 19.125 33.9654 18.974Z" fill="#505048"/>
<path d="M42.1842 17.0625C42.2727 17.0625 42.3613 17.0625 42.455 17.0625C42.5019 17.4635 42.5488 17.8698 42.5956 18.2865C42.4602 18.2448 42.3248 18.1979 42.1842 18.151C42.1842 17.7917 42.1842 17.4323 42.1842 17.0625Z" fill="#4E4D44"/>
<path d="M39.4446 41.0938C39.4081 41.349 39.4081 41.349 39.304 41.6406C38.9029 41.9271 38.5592 41.9427 38.0748 41.9115C38.2102 41.8229 38.3456 41.7344 38.4863 41.6406C38.6008 41.5469 38.7154 41.4479 38.8352 41.349C39.1685 41.0937 39.1685 41.0938 39.4446 41.0938Z" fill="#A9A598"/>
<path d="M38.2102 39.1823C38.2571 39.3177 38.2988 39.4531 38.3456 39.5938C38.481 39.6354 38.6165 39.6823 38.7571 39.7292C38.6685 39.8177 38.58 39.9115 38.4863 40C38.3508 39.9115 38.2154 39.8229 38.0748 39.7292C37.6477 39.7083 37.6477 39.7083 37.2519 39.7292C37.2519 39.6406 37.2519 39.5469 37.2519 39.4583C37.5696 39.4583 37.8821 39.4583 38.2102 39.4583C38.2102 39.3646 38.2102 39.276 38.2102 39.1823Z" fill="#C8C5B8"/>
<path d="M47.3873 34.8125C47.7311 35.1354 47.9186 35.3125 48.0748 35.7708C47.8456 35.7708 47.6217 35.7708 47.3873 35.7708C47.2571 35.3594 47.2467 35.2396 47.3873 34.8125Z" fill="#515147"/>
<path d="M40.4029 31.6719C40.4915 31.6719 40.5852 31.6719 40.6738 31.6719C40.6321 32.1719 40.5696 32.3229 40.1894 32.6719C40.08 32.7448 39.9654 32.8229 39.856 32.901C39.9967 32.4375 40.1269 32.0781 40.4029 31.6719Z" fill="#4F4F46"/>
<path d="M41.7727 28.9427C41.8613 29.0313 41.955 29.1198 42.0435 29.2135C41.955 29.4844 41.8665 29.7552 41.7727 30.0313C41.6373 29.9896 41.5019 29.9427 41.3613 29.8958C41.6165 29.0938 41.6165 29.0938 41.7727 28.9427Z" fill="#46453E"/>
<path d="M4.65292 26.7552C4.74146 26.7552 4.83521 26.7552 4.92896 26.7552C5.13209 27.1615 5.0748 27.5417 5.06438 27.9844C4.97584 27.9844 4.88209 27.9844 4.78834 27.9844C4.74667 27.5781 4.6998 27.1719 4.65292 26.7552Z" fill="#505044"/>
<path d="M4.51751 19.9271C4.54876 20.8333 4.54876 20.8333 4.24147 21.2917C4.19459 20.8854 4.15292 20.4844 4.10605 20.0625C4.37688 19.9271 4.37688 19.9271 4.51751 19.9271Z" fill="#56554D"/>
<path d="M41.2258 14.6042C41.3612 14.6042 41.4967 14.6042 41.6373 14.6042C41.679 15.0052 41.7258 15.4115 41.7727 15.8333C41.429 15.4271 41.2987 15.125 41.2258 14.6042Z" fill="#4C4B44"/>
<path d="M8.62687 9.54688C8.71541 9.64063 8.80395 9.72917 8.8977 9.82292C8.42895 10.6146 8.42895 10.6146 8.04354 10.7604C7.96541 10.7656 7.88729 10.7708 7.80396 10.776C8.01229 10.3073 8.29875 9.94271 8.62687 9.54688Z" fill="#57564D"/>
<path d="M30.5383 4.08854C31.1894 4.14583 31.4862 4.26562 31.9081 4.77083C31.4237 4.6875 30.9967 4.55208 30.5383 4.35937C30.5383 4.27083 30.5383 4.17708 30.5383 4.08854Z" fill="#4E4D45"/>
<path d="M34.2363 38.3646C34.5071 38.5 34.7831 38.6354 35.0592 38.7708C35.106 38.6823 35.1529 38.5938 35.1998 38.5C35.1998 38.6823 35.1998 38.8594 35.1998 39.0469C34.8821 39.0469 34.5644 39.0469 34.2363 39.0469C34.2363 38.8229 34.2363 38.5938 34.2363 38.3646Z" fill="#C5C1B5"/>
<path d="M119.294 33.7188C119.34 33.8542 119.387 33.9896 119.434 34.1302C119.523 34.1771 119.616 34.2187 119.705 34.2656C119.705 34.7187 119.705 35.1667 119.705 35.6302C119.294 35.224 119.294 35.224 119.257 34.8542C119.262 34.7187 119.268 34.5833 119.273 34.4479C119.273 34.3125 119.278 34.1719 119.283 34.0365C119.288 33.9323 119.294 33.8281 119.294 33.7188Z" fill="#86876E"/>
<path d="M112.252 30.026C112.408 30.026 112.559 30.0313 112.721 30.0313C112.768 30.125 112.814 30.2135 112.856 30.3073C112.346 30.4583 112.346 30.4583 112.038 30.3073C111.991 30.4427 111.945 30.5781 111.898 30.7135C111.898 30.5833 111.898 30.4479 111.898 30.3073C111.809 30.2604 111.721 30.2188 111.627 30.1719C111.762 30.0313 111.762 30.0313 112.252 30.026Z" fill="#63633E"/>
<path d="M92.1738 28.5312C92.6425 28.6875 92.7571 28.7917 92.9967 29.2135C92.9394 29.5052 92.9394 29.5052 92.8613 29.7604C92.7467 29.6094 92.6321 29.4531 92.5175 29.2969C92.455 29.2135 92.3925 29.1302 92.3248 29.0417C92.1738 28.8021 92.1738 28.8021 92.1738 28.5312Z" fill="#5A5C4D"/>
<path d="M4.92896 16.7865C5.12688 17.3073 4.98625 17.6458 4.78834 18.151C4.63729 17.9219 4.63729 17.9219 4.5175 17.6042C4.69459 17.0208 4.69459 17.0208 4.92896 16.7865Z" fill="#4B4A40"/>
<path d="M37.7988 41.776C37.8456 41.9115 37.8925 42.0469 37.9342 42.1875C37.5279 42.1875 37.1217 42.1875 36.705 42.1875C36.705 42.099 36.705 42.0052 36.705 41.9115C37.4915 41.776 37.4915 41.776 37.7988 41.776Z" fill="#B0ADA4"/>
<path d="M35.1998 38.6354C35.6477 38.7708 36.1008 38.9063 36.5644 39.0469C36.5644 39.1354 36.5644 39.224 36.5644 39.3177C36.1165 39.2292 35.6633 39.1406 35.1998 39.0469C35.1998 38.9115 35.1998 38.776 35.1998 38.6354Z" fill="#A9A499"/>
<path d="M91.6269 34.401C91.9758 34.724 92.1633 34.901 92.3144 35.3594C92.179 35.3594 92.0435 35.3594 91.9029 35.3594C91.6269 35.0833 91.6269 35.0833 91.6113 34.7292C91.6165 34.6198 91.6217 34.5156 91.6269 34.401Z" fill="#5C5C4F"/>
<path d="M111.215 24.2969C111.351 24.7083 111.351 24.7083 111.174 25.0729C111.096 25.1771 111.018 25.2813 110.939 25.3906C110.851 25.3906 110.762 25.3906 110.669 25.3906C110.622 25.4792 110.575 25.5729 110.528 25.6615C110.616 25.1198 110.903 24.7448 111.215 24.2969Z" fill="#5A5B4C"/>
<path d="M42.8665 23.4792C42.9133 23.4792 42.9602 23.4792 43.0019 23.4792C43.0488 23.8854 43.0956 24.2917 43.1425 24.7083C43.0071 24.75 42.8717 24.7969 42.731 24.8438C42.7779 24.3958 42.8196 23.9427 42.8665 23.4792Z" fill="#515149"/>
<path d="M74.9185 22.25C74.9185 22.7969 74.6842 23.0417 74.3717 23.4792C74.2779 23.4323 74.1894 23.3906 74.0956 23.3438C74.455 22.5573 74.455 22.5573 74.9185 22.25Z" fill="#595A4C"/>
<path d="M9.5852 8.31771C9.67375 8.5 9.76229 8.6823 9.85604 8.86459C9.44979 9.20313 9.44979 9.20313 9.03833 9.54688C9.12687 9.07292 9.32479 8.72396 9.5852 8.31771Z" fill="#494941"/>
<path d="M40.1269 32.6302C40.1269 33.0365 40.1269 33.0365 39.7831 33.4063C39.6737 33.5104 39.5592 33.6146 39.4446 33.7188C39.3977 33.6302 39.3508 33.5417 39.304 33.4479C39.58 33.1719 39.856 32.901 40.1269 32.6302Z" fill="#6E6D65"/>
<path d="M118.335 32.7656C118.695 32.8177 118.695 32.8177 119.023 32.901C119.023 33.0365 119.023 33.1719 119.023 33.3125C118.705 33.2187 118.387 33.1302 118.064 33.0365C118.153 32.9479 118.247 32.8594 118.335 32.7656Z" fill="#727363"/>
<path d="M5.74667 30.5781C6.00709 30.599 6.00709 30.599 6.29876 30.7135C6.46542 31.1354 6.46542 31.1354 6.56959 31.5365C6.10084 31.3802 6.00709 31.2552 5.74667 30.8542C5.74667 30.7604 5.74667 30.6719 5.74667 30.5781Z" fill="#5A5952"/>
<path d="M133.814 12.6875C133.768 12.8229 133.726 12.9583 133.679 13.099C133.179 13.0521 132.684 13.0104 132.174 12.9635C132.174 12.9167 132.174 12.875 132.174 12.8281C132.366 12.8021 132.564 12.7813 132.762 12.7604C132.872 12.7448 132.981 12.7344 133.096 12.7187C133.403 12.6875 133.403 12.6875 133.814 12.6875Z" fill="#A4A285"/>
<path d="M14.7883 4.90625C14.7883 4.99479 14.7883 5.08854 14.7883 5.17708C14.4654 5.375 14.3144 5.46354 13.9342 5.40104C13.856 5.375 13.7727 5.34375 13.6946 5.31771C14.1112 4.95833 14.205 4.90625 14.7883 4.90625Z" fill="#57554E"/>
<path d="M33.9654 41.2292C34.1685 41.2708 34.3717 41.3073 34.5748 41.349C34.7415 41.3854 34.7415 41.3854 34.9133 41.4167C35.0071 41.4479 35.1008 41.474 35.1998 41.5052C35.2415 41.5938 35.2883 41.6823 35.3352 41.776C34.929 41.776 34.5227 41.776 34.1008 41.776C34.054 41.599 34.0123 41.4167 33.9654 41.2292Z" fill="#BEB9AD"/>
<path d="M92.1738 35.3594C92.2675 35.3594 92.356 35.3594 92.4498 35.3594C92.6477 35.6823 92.7363 35.8333 92.6738 36.2135C92.6425 36.2917 92.6165 36.3698 92.5852 36.4531C92.3144 35.9792 92.3144 35.9792 92.0383 35.4948C92.0852 35.4531 92.1321 35.4063 92.1738 35.3594Z" fill="#6E6E60"/>
<path d="M28.7571 29.2135C28.804 29.3021 28.8508 29.3958 28.8977 29.4844C28.5331 29.4844 28.1738 29.4844 27.7988 29.4844C27.7988 29.3958 27.7988 29.3073 27.7988 29.2135C28.2258 29.0729 28.3508 29.0625 28.7571 29.2135Z" fill="#CBC9C1"/>
<path d="M106.559 25.526C106.762 25.7083 106.762 25.7083 106.971 25.9375C106.971 26.0729 106.971 26.2083 106.971 26.3438C106.835 26.3438 106.7 26.3438 106.559 26.3438C106.512 26.4375 106.465 26.526 106.419 26.6198C106.465 26.2604 106.512 25.8958 106.559 25.526Z" fill="#6D6F61"/>
<path d="M95.1894 22.5208C95.2363 22.6563 95.2779 22.7917 95.3248 22.9323C95.1477 23.1198 94.9654 23.3021 94.7779 23.4792C94.6894 23.4792 94.5956 23.4792 94.5071 23.4792C94.6842 23.0833 94.8665 22.8125 95.1894 22.5208Z" fill="#5A5C4D"/>
<path d="M13.4602 5.63021C13.5383 5.66146 13.6165 5.69271 13.6946 5.72396C13.3769 5.90625 13.0592 6.08854 12.7362 6.27083C12.6425 6.18229 12.554 6.09375 12.4602 6C13.0696 5.57812 13.0696 5.57812 13.4602 5.63021Z" fill="#585852"/>
<path d="M116.965 30.4427C116.965 30.5313 116.965 30.625 116.965 30.7135C116.695 30.7135 116.424 30.7135 116.148 30.7135C116.658 30.4427 116.658 30.4427 116.965 30.4427Z" fill="#2A2A2A"/>
<path d="M46.2935 33.0365C46.4394 33.2917 46.4394 33.2917 46.5644 33.5833C46.5227 33.6719 46.4758 33.7656 46.429 33.8594C46.2935 33.7188 46.2935 33.7188 46.2831 33.3698C46.2883 33.2604 46.2883 33.151 46.2935 33.0365Z" fill="#242424"/>
<path d="M69.4394 29.8958C69.4863 29.8958 69.5279 29.8958 69.5748 29.8958C69.5748 30.2135 69.5748 30.526 69.5748 30.8542C69.5331 30.8542 69.4863 30.8542 69.4394 30.8542C69.4394 30.5365 69.4394 30.224 69.4394 29.8958Z" fill="#555555"/>
<path d="M69.4394 28.8021C69.4863 28.8021 69.5279 28.8021 69.5748 28.8021C69.5748 29.1198 69.5748 29.4375 69.5748 29.7604C69.5331 29.7604 69.4863 29.7604 69.4394 29.7604C69.4394 29.4427 69.4394 29.1302 69.4394 28.8021Z" fill="#242424"/>
<path d="M69.4394 33.1719C69.4863 33.1719 69.5279 33.1719 69.5748 33.1719C69.5748 33.4427 69.5748 33.7135 69.5748 33.9948C69.5331 33.9948 69.4863 33.9948 69.4394 33.9948C69.4394 33.724 69.4394 33.4531 69.4394 33.1719Z" fill="#232323"/>
<path d="M116.148 26.4844C116.236 26.4844 116.325 26.4844 116.419 26.4844C116.419 26.7083 116.419 26.9323 116.419 27.1667C116.148 26.6354 116.148 26.6354 116.148 26.4844Z" fill="#232323"/>
<path d="M82.5904 15.0104C82.6321 15.0104 82.679 15.0104 82.7258 15.0104C82.7258 15.2812 82.7258 15.5521 82.7258 15.8333C82.679 15.8333 82.6373 15.8333 82.5904 15.8333C82.5904 15.5625 82.5904 15.2917 82.5904 15.0104Z" fill="#0E0E0E"/>
<path d="M106.283 33.1719C106.419 33.3073 106.554 33.4427 106.695 33.5833C106.559 33.5365 106.424 33.4948 106.283 33.4479C106.283 33.3594 106.283 33.2656 106.283 33.1719Z" fill="black"/>
<path d="M69.4394 27.7135C69.4863 27.7135 69.5279 27.7135 69.5748 27.7135C69.5748 27.9375 69.5748 28.1615 69.5748 28.3958C69.5331 28.3958 69.4863 28.3958 69.4394 28.3958C69.4394 28.1667 69.4394 27.9427 69.4394 27.7135Z" fill="#444444"/>
<path d="M119.705 23.6146C119.84 23.6615 119.976 23.7031 120.116 23.75C120.028 23.8438 119.939 23.9323 119.846 24.026C119.799 23.8906 119.752 23.7552 119.705 23.6146Z" fill="#7F4C3B"/>
<path d="M113.132 33.3125C113.179 33.401 113.221 33.4896 113.268 33.5833C113.132 33.5365 112.997 33.4948 112.856 33.4479C112.95 33.401 113.038 33.3594 113.132 33.3125Z" fill="#353535"/>
<path d="M114.09 23.8854C114.226 23.8854 114.361 23.8854 114.502 23.8854C114.455 23.9792 114.413 24.0677 114.366 24.1615C114.273 24.0729 114.184 23.9792 114.09 23.8854Z" fill="#757575"/>
<path d="M106.83 23.3438C106.965 23.4115 106.965 23.4115 107.106 23.4792C107.018 23.5677 106.924 23.6563 106.83 23.75C106.83 23.6146 106.83 23.4792 106.83 23.3438Z" fill="black"/>
<path d="M46.0175 21.8385C46.1529 22.3854 46.1529 22.3854 46.1529 22.3854L46.0175 21.8385Z" fill="#151515"/>
<path d="M132.58 20.3385C132.674 20.3385 132.762 20.3385 132.856 20.3385C132.809 20.474 132.768 20.6094 132.721 20.7448C132.674 20.6094 132.627 20.4792 132.58 20.3385Z" fill="#AAAAAA"/>
<path d="M118.611 30.4427C118.747 30.5104 118.747 30.5104 118.887 30.5781C118.752 30.6458 118.752 30.6458 118.611 30.7135C118.611 30.625 118.611 30.5365 118.611 30.4427Z" fill="black"/>
<path d="M50.8092 29.8958C50.9498 29.9635 50.9498 29.9635 51.0852 30.0313C50.9498 30.099 50.9498 30.099 50.8092 30.1719C50.8092 30.0781 50.8092 29.9896 50.8092 29.8958Z" fill="black"/>
<path d="M119.705 43.2812C119.981 43.4167 119.981 43.4167 119.981 43.4167L119.705 43.2812Z" fill="black"/>
<path d="M34.3769 42.1875C34.6477 42.3229 34.6477 42.3229 34.6477 42.3229L34.3769 42.1875Z" fill="black"/>
<path d="M124.502 38.3646C124.773 38.5 124.773 38.5 124.773 38.5L124.502 38.3646Z" fill="#808080"/>
<path d="M147.512 38.2292C147.783 38.3646 147.783 38.3646 147.783 38.3646L147.512 38.2292Z" fill="#BFBFBF"/>
<path d="M110.669 37.1354C110.939 37.2708 110.939 37.2708 110.939 37.2708L110.669 37.1354Z" fill="#404040"/>
<path d="M119.705 32.3542C119.981 32.4896 119.981 32.4896 119.981 32.4896L119.705 32.3542Z" fill="#BFBF40"/>
<path d="M110.669 30.5781C110.939 30.7135 110.939 30.7135 110.939 30.7135L110.669 30.5781Z" fill="black"/>
<path d="M119.57 30.4427C119.846 30.5781 119.846 30.5781 119.846 30.5781L119.57 30.4427Z" fill="#404040"/>
<path d="M92.8613 25.526C93.1373 25.6615 93.1373 25.6615 93.1373 25.6615L92.8613 25.526Z" fill="#808080"/>
<path d="M106.83 23.8854C107.106 24.026 107.106 24.026 107.106 24.026L106.83 23.8854Z" fill="black"/>
<path d="M89.2988 23.3438C89.5748 23.4792 89.5748 23.4792 89.5748 23.4792L89.2988 23.3438Z" fill="black"/>
<path d="M109.57 21.0208C109.846 21.1563 109.846 21.1563 109.846 21.1563L109.57 21.0208Z" fill="#808080"/>
<path d="M62.5904 20.3385C62.8665 20.474 62.8665 20.474 62.8665 20.474L62.5904 20.3385Z" fill="black"/>
<path d="M115.189 20.2031C115.46 20.3385 115.46 20.3385 115.46 20.3385L115.189 20.2031Z" fill="#2A2A2A"/>
<path d="M3.83 17.7448C4.10604 17.8802 4.10604 17.8802 4.10604 17.8802L3.83 17.7448Z" fill="black"/>
<path d="M103.544 13.5104C103.82 13.6458 103.82 13.6458 103.82 13.6458L103.544 13.5104Z" fill="black"/>
<path d="M100.257 12.9635C100.533 13.099 100.533 13.099 100.533 13.099L100.257 12.9635Z" fill="#6A6A6A"/>
<path d="M119.705 8.31771C119.981 8.45834 119.981 8.45834 119.981 8.45834L119.705 8.31771Z" fill="black"/>
<path d="M119.705 3.94791C119.981 4.08854 119.981 4.08854 119.981 4.08854L119.705 3.94791Z" fill="black"/>
<path d="M18.0748 3.13021C18.3508 3.26563 18.3508 3.26563 18.3508 3.26563L18.0748 3.13021Z" fill="black"/>
</svg>
