<?xml version="1.0" encoding="UTF-8"?>
<svg version="1.1" xmlns="http://www.w3.org/2000/svg" width="156" height="47">
<path d="M0 0 C1.43914318 1.2335513 2.87406336 2.47202489 4.30859375 3.7109375 C5.62859375 4.0409375 6.94859375 4.3709375 8.30859375 4.7109375 C8.80359375 9.6609375 8.80359375 9.6609375 9.30859375 14.7109375 C9.96859375 14.7109375 10.62859375 14.7109375 11.30859375 14.7109375 C11.96859375 11.4109375 12.62859375 8.1109375 13.30859375 4.7109375 C14.62859375 4.7109375 15.94859375 4.7109375 17.30859375 4.7109375 C17.80359375 5.7009375 17.80359375 5.7009375 18.30859375 6.7109375 C19.64192708 3.7109375 19.64192708 3.7109375 18.30859375 0.7109375 C18.96859375 -0.2790625 19.62859375 -1.2690625 20.30859375 -2.2890625 C21.62859375 -1.9590625 22.94859375 -1.6290625 24.30859375 -1.2890625 C24.30859375 0.6909375 24.30859375 2.6709375 24.30859375 4.7109375 C27.93859375 4.7109375 31.56859375 4.7109375 35.30859375 4.7109375 C35.30859375 3.0609375 35.30859375 1.4109375 35.30859375 -0.2890625 C36.96474032 -0.67125017 38.63316399 -1.00301352 40.30859375 -1.2890625 C42.27682261 0.67916636 41.97107756 4.05902459 42.30859375 6.7109375 C42.96859375 6.0509375 43.62859375 5.3909375 44.30859375 4.7109375 C45.62859375 4.7109375 46.94859375 4.7109375 48.30859375 4.7109375 C47.79533394 6.76397673 47.2808391 8.80530332 46.68359375 10.8359375 C46.09298365 12.79133449 46.09298365 12.79133449 47.30859375 14.7109375 C47.96859375 14.7109375 48.62859375 14.7109375 49.30859375 14.7109375 C49.29699219 13.89109375 49.28539063 13.07125 49.2734375 12.2265625 C49.26441406 11.14890625 49.25539063 10.07125 49.24609375 8.9609375 C49.23449219 7.89359375 49.22289063 6.82625 49.2109375 5.7265625 C49.36325613 1.02296322 49.36325613 1.02296322 50.30859375 -1.2890625 C51.29859375 -1.6190625 52.28859375 -1.9490625 53.30859375 -2.2890625 C54.29859375 -1.7940625 54.29859375 -1.7940625 55.30859375 -1.2890625 C56.03935023 1.0249997 56.70997633 3.35922619 57.30859375 5.7109375 C58.23091797 5.62392578 58.23091797 5.62392578 59.171875 5.53515625 C61.62401314 5.39827454 63.87383651 5.37912103 66.30859375 5.7109375 C68.43359375 7.7109375 68.43359375 7.7109375 69.30859375 10.7109375 C69.22874584 17.79078541 69.22874584 17.79078541 67.30859375 19.7109375 C63.07544608 19.95054963 59.94122886 20.03582397 56.30859375 17.7109375 C55.64859375 18.3709375 54.98859375 19.0309375 54.30859375 19.7109375 C52.21484375 20.01171875 52.21484375 20.01171875 49.80859375 20.0234375 C49.01453125 20.04019531 48.22046875 20.05695312 47.40234375 20.07421875 C46.71140625 19.95433594 46.02046875 19.83445312 45.30859375 19.7109375 C44.31859375 18.2259375 44.31859375 18.2259375 43.30859375 16.7109375 C42.64859375 16.7109375 41.98859375 16.7109375 41.30859375 16.7109375 C40.81359375 18.1959375 40.81359375 18.1959375 40.30859375 19.7109375 C38.37109375 19.3359375 38.37109375 19.3359375 36.30859375 18.7109375 C34.7013374 15.49642481 35.2511119 12.27481214 35.30859375 8.7109375 C32.14268469 9.3768951 32.14268469 9.3768951 31.140625 11.99609375 C30.80417969 12.91261719 30.46773437 13.82914063 30.12109375 14.7734375 C29.77691406 15.69253906 29.43273437 16.61164062 29.078125 17.55859375 C28.69720703 18.62400391 28.69720703 18.62400391 28.30859375 19.7109375 C25.33859375 19.7109375 22.36859375 19.7109375 19.30859375 19.7109375 C18.81359375 18.2259375 18.81359375 18.2259375 18.30859375 16.7109375 C17.64859375 17.7009375 16.98859375 18.6909375 16.30859375 19.7109375 C14.25 20.109375 14.25 20.109375 11.87109375 20.0859375 C11.08863281 20.09367187 10.30617187 20.10140625 9.5 20.109375 C6.80021101 19.61850428 6.00894092 18.82273894 4.30859375 16.7109375 C3.64859375 15.7209375 2.98859375 14.7309375 2.30859375 13.7109375 C0.15481811 16.33292524 -1.09212799 18.35497922 -1.69140625 21.7109375 C-0.70140625 21.7109375 0.28859375 21.7109375 1.30859375 21.7109375 C0.97859375 23.0309375 0.64859375 24.3509375 0.30859375 25.7109375 C-2.65315748 25.09816138 -4.07199408 24.45721228 -6.69140625 22.7109375 C-8.74006719 22.47754692 -8.74006719 22.47754692 -10.94140625 22.4609375 C-16.31518449 21.97082092 -19.16271219 19.64972303 -22.69140625 15.7109375 C-24.76383061 13.05564378 -25.66562065 11.69079046 -25.75390625 8.3359375 C-23.84224145 3.61300093 -21.02465362 0.05406145 -16.57421875 -2.5078125 C-10.17729209 -5.07543704 -5.44589965 -4.1504547 0 0 Z " fill="#EBE6EB" transform="translate(47.69140625,14.2890625)"/>
<path d="M0 0 C-0.99 0.495 -0.99 0.495 -2 1 C-1.05125 1.556875 -0.1025 2.11375 0.875 2.6875 C4.1560723 5.1154935 5.05420728 6.12224983 6 10 C6.125 12.8125 6.125 12.8125 6 15 C6.66 15.33 7.32 15.66 8 16 C7.525625 16.5775 7.05125 17.155 6.5625 17.75 C5.0515133 19.92582084 4.45963849 21.42602448 4 24 C4.99 24 5.98 24 7 24 C6.67 25.32 6.34 26.64 6 28 C3.03824877 27.38722388 1.61941217 26.74627478 -1 25 C-3.04866094 24.76660942 -3.04866094 24.76660942 -5.25 24.75 C-10.62377824 24.25988342 -13.47130594 21.93878553 -17 18 C-19.07242436 15.34470628 -19.9742144 13.97985296 -20.0625 10.625 C-18.13994424 5.87515636 -15.33214505 2.22256047 -10.7421875 -0.18359375 C-6.35929517 -1.81090526 -4.14553049 -2.54171666 0 0 Z " fill="#E5E4E4" transform="translate(42,12)"/>
<path d="M0 0 C2.6484375 1.08203125 2.6484375 1.08203125 3.63574219 2.69775391 C4.5447644 4.90440793 5.30193182 7.11973226 6.0234375 9.39453125 C6.29542969 10.16732422 6.56742188 10.94011719 6.84765625 11.73632812 C8.16084706 15.65233045 8.95385389 18.04900543 7.6484375 22.08203125 C5.13539945 21.64874883 3.93327189 21.40401795 2.2109375 19.45703125 C0.67391925 17.78265113 0.67391925 17.78265113 -1.9140625 18.20703125 C-4.6777236 18.92592293 -4.6777236 18.92592293 -6.3515625 22.08203125 C-7.6715625 21.75203125 -8.9915625 21.42203125 -10.3515625 21.08203125 C-5.19472469 0.18121133 -5.19472469 0.18121133 0 0 Z M-1.3515625 9.08203125 C-1.6815625 10.40203125 -2.0115625 11.72203125 -2.3515625 13.08203125 C-1.3615625 13.08203125 -0.3715625 13.08203125 0.6484375 13.08203125 C0.6484375 11.76203125 0.6484375 10.44203125 0.6484375 9.08203125 C-0.0115625 9.08203125 -0.6715625 9.08203125 -1.3515625 9.08203125 Z " fill="#77787C" transform="translate(131.3515625,12.91796875)"/>
<path d="M0 0 C3.41906213 1.77528226 5.47128564 3.10348435 7.4375 6.4375 C8.10283927 9.46849001 8.02600205 11.06856556 7 14 C4.9375 16.8125 4.9375 16.8125 3 19 C1 18 -1 17 -3 16 C-3 16.66 -3 17.32 -3 18 C-1.68 18.66 -0.36 19.32 1 20 C1 20.66 1 21.32 1 22 C-2.00591688 21.02510804 -3.65990422 20.46253026 -5.5625 17.875 C-6.036875 17.25625 -6.51125 16.6375 -7 16 C-8.32 16 -9.64 16 -11 16 C-11 15.34 -11 14.68 -11 14 C-10.236875 13.731875 -9.47375 13.46375 -8.6875 13.1875 C-6.12619116 12.05575888 -4.80307062 11.08776599 -3 9 C-2.34 10.65 -1.68 12.3 -1 14 C-0.67 14 -0.34 14 0 14 C-0.33 12.35 -0.66 10.7 -1 9 C-0.01 9 0.98 9 2 9 C2 8.01 2 7.02 2 6 C0.02 6.99 0.02 6.99 -2 8 C-1.67 7.01 -1.34 6.02 -1 5 C-1.99 5.495 -1.99 5.495 -3 6 C-3.33 5.01 -3.66 4.02 -4 3 C-6.31 3.33 -8.62 3.66 -11 4 C-11 5.98 -11 7.96 -11 10 C-11.66 10 -12.32 10 -13 10 C-12.67 11.32 -12.34 12.64 -12 14 C-12.66 14 -13.32 14 -14 14 C-15.06015025 10.72317195 -15.06218195 9.18288808 -13.9375 5.875 C-10.51824335 0.80126433 -6.00457605 -0.87566734 0 0 Z " fill="#3B3B3B" transform="translate(40,13)"/>
<path d="M0 0 C0.66 0.99 1.32 1.98 2 3 C2.99 3 3.98 3 5 3 C5 3.33 5 3.66 5 4 C5.66 3.67 6.32 3.34 7 3 C6.67 4.32 6.34 5.64 6 7 C5.01 7 4.02 7 3 7 C3.33 7.763125 3.66 8.52625 4 9.3125 C5 12 5 12 5 15 C2.47411298 12.63707344 1.11179163 11.33537489 0 8 C-0.99 9.485 -0.99 9.485 -2 11 C-5.625 12.1875 -5.625 12.1875 -9 13 C-9 11.35 -9 9.7 -9 8 C-8.34 8 -7.68 8 -7 8 C-7 6.02 -7 4.04 -7 2 C-4.69 1.34 -2.38 0.68 0 0 Z " fill="#7A7A7A" transform="translate(36,15)"/>
<path d="M0 0 C1.98 0.495 1.98 0.495 4 1 C4 7.93 4 14.86 4 22 C2.35 21.67 0.7 21.34 -1 21 C-1.02895976 17.87501937 -1.04678483 14.7500731 -1.0625 11.625 C-1.07087891 10.73554688 -1.07925781 9.84609375 -1.08789062 8.9296875 C-1.09111328 8.07890625 -1.09433594 7.228125 -1.09765625 6.3515625 C-1.10289307 5.56604004 -1.10812988 4.78051758 -1.11352539 3.97119141 C-1 2 -1 2 0 0 Z " fill="#757577" transform="translate(142,13)"/>
<path d="M0 0 C1.67542976 0.28604898 3.34385343 0.61781233 5 1 C5.66 3.31 6.32 5.62 7 8 C5.02 8.33 3.04 8.66 1 9 C0.67 10.65 0.34 12.3 0 14 C-1.65 14.33 -3.3 14.66 -5 15 C-4.05660377 4.05660377 -4.05660377 4.05660377 0 0 Z " fill="#828283" transform="translate(129,13)"/>
<path d="M0 0 C1.32 0 2.64 0 4 0 C4 2.97 4 5.94 4 9 C3.67 9 3.34 9 3 9 C3 6.36 3 3.72 3 1 C2.34 1 1.68 1 1 1 C1 6.28 1 11.56 1 17 C1.66 17 2.32 17 3 17 C3.33 16.34 3.66 15.68 4 15 C4 16.98 4 18.96 4 21 C2.0625 20.625 2.0625 20.625 0 20 C-1.60725635 16.78548731 -1.05748185 13.56387464 -1 10 C-2.65 10.33 -4.3 10.66 -6 11 C-6 10.34 -6 9.68 -6 9 C-7.65 9 -9.3 9 -11 9 C-11 8.01 -11 7.02 -11 6 C-7.7 6 -4.4 6 -1 6 C-1 4.35 -1 2.7 -1 1 C-0.67 0.67 -0.34 0.34 0 0 Z " fill="#E4DFE1" transform="translate(84,13)"/>
<path d="M0 0 C3.16232541 -0.47434881 5.28577407 -0.44331265 8.0390625 1.265625 C9.40177992 2.31700997 10.74677074 3.39189375 12.0703125 4.4921875 C13.96915224 5.97589628 15.8148304 6.99967792 18 8 C17.34 10.31 16.68 12.62 16 15 C14.02 15 12.04 15 10 15 C9.86464844 14.32453125 9.72929688 13.6490625 9.58984375 12.953125 C8.43117071 7.6456943 8.43117071 7.6456943 5.2421875 3.4453125 C3.12943936 2.22605913 3.12943936 2.22605913 0 1 C0 0.67 0 0.34 0 0 Z " fill="#F4F3F3" transform="translate(38,12)"/>
<path d="M0 0 C2 2 2 2 2.23046875 3.91015625 C2.11111111 9.88888889 2.11111111 9.88888889 1 11 C-5.23529412 11.47058824 -5.23529412 11.47058824 -8.4375 9.5 C-8.953125 9.005 -9.46875 8.51 -10 8 C-9.67 6.35 -9.34 4.7 -9 3 C-8.2575 3.2475 -7.515 3.495 -6.75 3.75 C-5.38875 3.87375 -5.38875 3.87375 -4 4 C-1.66545339 2.16641665 -1.66545339 2.16641665 0 0 Z " fill="#F3F0F5" transform="translate(114,23)"/>
<path d="M0 0 C3.4375 1.25 3.4375 1.25 7 3 C8.04841696 5.37910002 8.09858182 6.62221794 7.44140625 9.140625 C7.15136719 9.83671875 6.86132812 10.5328125 6.5625 11.25 C6.27503906 11.95640625 5.98757812 12.6628125 5.69140625 13.390625 C5.46324219 13.92171875 5.23507813 14.4528125 5 15 C3.68 14.67 2.36 14.34 1 14 C0.67 9.38 0.34 4.76 0 0 Z " fill="#EAE7EB" transform="translate(71,19)"/>
<path d="M0 0 C3.05074215 -0.28780586 5.96183742 -0.45787911 9 0 C11.0625 2.5 11.0625 2.5 12 5 C11.401875 5.12375 10.80375 5.2475 10.1875 5.375 C7.73768652 5.95475985 7.73768652 5.95475985 5 8 C1.8125 7.625 1.8125 7.625 -1 7 C-0.67 4.69 -0.34 2.38 0 0 Z " fill="#EFEFF1" transform="translate(105,20)"/>
<path d="M0 0 C1.32 0 2.64 0 4 0 C4 3.3 4 6.6 4 10 C4.66 10 5.32 10 6 10 C5.25 14.75 5.25 14.75 3 17 C2.01 16.67 1.02 16.34 0 16 C0 10.72 0 5.44 0 0 Z " fill="#F8F4F8" transform="translate(85,14)"/>
<path d="M0 0 C1.32 0 2.64 0 4 0 C3.48802024 2.04791903 2.99221004 4.02077322 2.25 6 C1.75594814 8.14017403 1.75594814 8.14017403 3.4375 10.0625 C3.953125 10.701875 4.46875 11.34125 5 12 C5 12.99 5 13.98 5 15 C1.95525635 14.67083852 0.36391406 14.32869657 -1.9375 12.25 C-3 10 -3 10 -2.1875 7.25 C-1.795625 6.5075 -1.40375 5.765 -1 5 C-1.66 5 -2.32 5 -3 5 C-1.125 1.125 -1.125 1.125 0 0 Z " fill="#D4CED1" transform="translate(92,19)"/>
<path d="M0 0 C0.268125 0.598125 0.53625 1.19625 0.8125 1.8125 C1.98493467 3.97224808 3.19369282 5.35790256 5 7 C5.66 6.67 6.32 6.34 7 6 C7.33 6.99 7.66 7.98 8 9 C4 9 4 9 1 7 C1 7.66 1 8.32 1 9 C2.32 9.66 3.64 10.32 5 11 C5 11.66 5 12.32 5 13 C1.99408312 12.02510804 0.34009578 11.46253026 -1.5625 8.875 C-2.2740625 7.946875 -2.2740625 7.946875 -3 7 C-4.32 7 -5.64 7 -7 7 C-7 6.34 -7 5.68 -7 5 C-6.21625 4.731875 -5.4325 4.46375 -4.625 4.1875 C-1.71885077 3.15185568 -1.71885077 3.15185568 0 0 Z " fill="#3E3F3F" transform="translate(36,22)"/>
<path d="M0 0 C-0.90363281 0.21914062 -1.80726562 0.43828125 -2.73828125 0.6640625 C-3.91777344 0.98117188 -5.09726562 1.29828125 -6.3125 1.625 C-7.48425781 1.92664063 -8.65601563 2.22828125 -9.86328125 2.5390625 C-13.8077259 4.3762011 -14.52444789 5.98321927 -16 10 C-16.70758326 13.2366963 -16.70758326 13.2366963 -17 16 C-18.5625 14.8125 -18.5625 14.8125 -20 13 C-20.12167255 8.61978836 -17.70079256 5.70051256 -14.8828125 2.58984375 C-10.35898932 -1.23006504 -5.25243995 -3.22038739 0 0 Z " fill="#AAA8A7" transform="translate(42,12)"/>
<path d="M0 0 C0.66 0.99 1.32 1.98 2 3 C2.99 3 3.98 3 5 3 C5 3.33 5 3.66 5 4 C5.66 3.67 6.32 3.34 7 3 C6.67 4.32 6.34 5.64 6 7 C5.01 7 4.02 7 3 7 C3.33 7.763125 3.66 8.52625 4 9.3125 C5 12 5 12 5 15 C2.47411298 12.63707344 1.11179163 11.33537489 0 8 C-0.99 9.485 -0.99 9.485 -2 11 C-1.67 8.03 -1.34 5.06 -1 2 C-1.99 1.67 -2.98 1.34 -4 1 C-2.68 0.67 -1.36 0.34 0 0 Z " fill="#AEAEAE" transform="translate(36,15)"/>
<path d="M0 0 C0.66 0.66 1.32 1.32 2 2 C1.01 2 0.02 2 -1 2 C-1 7.94 -1 13.88 -1 20 C0.32 19.67 1.64 19.34 3 19 C2.67 19.99 2.34 20.98 2 22 C0.35 21.67 -1.3 21.34 -3 21 C-3.33 20.01 -3.66 19.02 -4 18 C-3.67 17.67 -3.34 17.34 -3 17 C-2.9271286 13.98950039 -3.00382803 10.99107437 -3.0625 7.98046875 C-3.00862931 5.41151025 -2.89433755 3.39794256 -2 1 C-1.34 0.67 -0.68 0.34 0 0 Z " fill="#E1DEE1" transform="translate(100,12)"/>
<path d="M0 0 C0.66 0.99 1.32 1.98 2 3 C1.34 3.66 0.68 4.32 0 5 C-0.16687448 7.58354218 -0.16687448 7.58354218 0 10 C-2.97 9.505 -2.97 9.505 -6 9 C-6 7.68 -6 6.36 -6 5 C-3.5625 3.375 -3.5625 3.375 -1 2 C-0.67 1.34 -0.34 0.68 0 0 Z " fill="#F9F7FA" transform="translate(114,23)"/>
<path d="M0 0 C0.66 0 1.32 0 2 0 C3.83354669 3.77494907 4.27227191 5.97113896 3 10 C2.01 11.485 2.01 11.485 1 13 C0.34 13 -0.32 13 -1 13 C-1 12.34 -1 11.68 -1 11 C-1.66 10.67 -2.32 10.34 -3 10 C-2.34 10 -1.68 10 -1 10 C-0.67 9.34 -0.34 8.68 0 8 C0.66 8.33 1.32 8.66 2 9 C1.484375 8.2575 0.96875 7.515 0.4375 6.75 C-1 4 -1 4 -0.6875 1.6875 C-0.3471875 0.8521875 -0.3471875 0.8521875 0 0 Z " fill="#2C2C2C" transform="translate(44,17)"/>
<path d="M0 0 C0.33 0 0.66 0 1 0 C2.06795656 5.57710648 1.82622671 10.39436958 1 16 C-0.65 16 -2.3 16 -4 16 C-4 14.02 -4 12.04 -4 10 C-3.01 10.33 -2.02 10.66 -1 11 C-0.67 7.37 -0.34 3.74 0 0 Z " fill="#FCF8FC" transform="translate(103,16)"/>
<path d="M0 0 C2.53552912 1.26776456 2.84919575 2.46823065 4 5 C4.33 5.66 4.66 6.32 5 7 C5.039992 8.99960012 5.04346799 11.00047242 5 13 C3.68 13.33 2.36 13.66 1 14 C0.67 9.38 0.34 4.76 0 0 Z " fill="#F9F8FB" transform="translate(71,19)"/>
<path d="M0 0 C0 0.66 0 1.32 0 2 C-1.98 2.33 -3.96 2.66 -6 3 C-6 4.98 -6 6.96 -6 9 C-6.66 9 -7.32 9 -8 9 C-7.67 10.32 -7.34 11.64 -7 13 C-7.66 13 -8.32 13 -9 13 C-10.07891878 9.66516014 -10.06074182 8.17210183 -8.875 4.8125 C-6.5021744 1.25326161 -4.29241564 0 0 0 Z " fill="#282624" transform="translate(35,14)"/>
<path d="M0 0 C1.32 0.33 2.64 0.66 4 1 C3.67 2.98 3.34 4.96 3 7 C1.0625 6.6875 1.0625 6.6875 -1 6 C-1.33 5.01 -1.66 4.02 -2 3 C-1.34 2.01 -0.68 1.02 0 0 Z " fill="#E9E5E6" transform="translate(68,12)"/>
<path d="M0 0 C0.33 0 0.66 0 1 0 C1.33 3.3 1.66 6.6 2 10 C0.02 10.99 0.02 10.99 -2 12 C-2.66 10.02 -3.32 8.04 -4 6 C-3.01 5.67 -2.02 5.34 -1 5 C-0.67 3.35 -0.34 1.7 0 0 Z " fill="#DCD4D7" transform="translate(55,20)"/>
<path d="M0 0 C1.65 0 3.3 0 5 0 C5.66 1.32 6.32 2.64 7 4 C5.02 4.33 3.04 4.66 1 5 C0.67 3.35 0.34 1.7 0 0 Z " fill="#5C5C5C" transform="translate(39,22)"/>
<path d="M0 0 C1.04449911 3.13349732 0.93423645 3.98968256 0 7 C-2.31 6.67 -4.62 6.34 -7 6 C-4.7629196 2.6443794 -4.57482962 2.80721959 -1 2 C-0.67 1.34 -0.34 0.68 0 0 Z " fill="#E7E1E4" transform="translate(60,27)"/>
<path d="M0 0 C0.66 0 1.32 0 2 0 C2.1953125 6.0546875 2.1953125 6.0546875 2 8 C1.34 8.66 0.68 9.32 0 10 C-2 7 -2 7 -1.6875 4.4375 C-1 2 -1 2 0 0 Z " fill="#C6C2BD" transform="translate(24,18)"/>
<path d="M0 0 C0.99 0.33 1.98 0.66 3 1 C3 4.96 3 8.92 3 13 C2.67 13 2.34 13 2 13 C2 10.36 2 7.72 2 5 C1.01 5.33 0.02 5.66 -1 6 C-1.042721 4.33388095 -1.04063832 2.66617115 -1 1 C-0.67 0.67 -0.34 0.34 0 0 Z " fill="#E8DFE6" transform="translate(69,20)"/>
<path d="M0 0 C0.33 0.66 0.66 1.32 1 2 C1.66 2 2.32 2 3 2 C2.67 3.32 2.34 4.64 2 6 C0.68 5.67 -0.64 5.34 -2 5 C-2.33 3.68 -2.66 2.36 -3 1 C-2.01 0.67 -1.02 0.34 0 0 Z " fill="#757578" transform="translate(137,29)"/>
<path d="M0 0 C0.66 1.32 1.32 2.64 2 4 C2.66 4 3.32 4 4 4 C4.33 3.34 4.66 2.68 5 2 C5 3.98 5 5.96 5 8 C3.68 7.67 2.36 7.34 1 7 C0.67 4.69 0.34 2.38 0 0 Z " fill="#D7D4D9" transform="translate(83,26)"/>
<path d="M0 0 C1.875 0.25 1.875 0.25 4 1 C5.25 3.0625 5.25 3.0625 6 5 C3.69 5 1.38 5 -1 5 C-0.67 3.35 -0.34 1.7 0 0 Z " fill="#929295" transform="translate(111,20)"/>
<path d="M0 0 C1.98 0.66 3.96 1.32 6 2 C6 2.99 6 3.98 6 5 C3.36 4.67 0.72 4.34 -2 4 C-1.34 3.67 -0.68 3.34 0 3 C0 2.01 0 1.02 0 0 Z " fill="#E5E5E5" transform="translate(35,32)"/>
<path d="M0 0 C2 1.3125 2 1.3125 4 3 C4 3.99 4 4.98 4 6 C2.35 5.67 0.7 5.34 -1 5 C-1.33 4.01 -1.66 3.02 -2 2 C-1.34 2 -0.68 2 0 2 C0 1.34 0 0.68 0 0 Z " fill="#CBC6CA" transform="translate(93,28)"/>
<path d="M0 0 C1.98 0 3.96 0 6 0 C6.33 0.99 6.66 1.98 7 3 C6.34 3 5.68 3 5 3 C4.67 3.99 4.34 4.98 4 6 C0 1.125 0 1.125 0 0 Z " fill="#323231" transform="translate(34,13)"/>
<path d="M0 0 C1.65 0.33 3.3 0.66 5 1 C4.67 2.32 4.34 3.64 4 5 C2.0625 4.625 2.0625 4.625 0 4 C-0.33 3.34 -0.66 2.68 -1 2 C-0.67 1.34 -0.34 0.68 0 0 Z " fill="#D1CDCF" transform="translate(44,35)"/>
<path d="M0 0 C5.53846154 -0.36923077 5.53846154 -0.36923077 7.875 1.5 C8.24625 1.995 8.6175 2.49 9 3 C6 4 6 4 2.8125 2.5625 C1.884375 2.046875 0.95625 1.53125 0 1 C0 0.67 0 0.34 0 0 Z " fill="#D6D6D8" transform="translate(38,12)"/>
<path d="M0 0 C2.00720923 0.28674418 4.0085944 0.61866701 6 1 C5.67 1.99 5.34 2.98 5 4 C3.68 4 2.36 4 1 4 C0.34 3.01 -0.32 2.02 -1 1 C-0.67 0.67 -0.34 0.34 0 0 Z " fill="#808182" transform="translate(133,27)"/>
<path d="M0 0 C0.66 0 1.32 0 2 0 C2.04241723 2.33294775 2.04092937 4.66702567 2 7 C1 8 1 8 -2.0625 8.0625 C-3.031875 8.041875 -4.00125 8.02125 -5 8 C-5 7.67 -5 7.34 -5 7 C-3.35 7 -1.7 7 0 7 C-0.185625 6.030625 -0.37125 5.06125 -0.5625 4.0625 C-0.706875 3.051875 -0.85125 2.04125 -1 1 C-0.67 0.67 -0.34 0.34 0 0 Z " fill="#D4D2D7" transform="translate(114,26)"/>
<path d="M0 0 C0.66 0.33 1.32 0.66 2 1 C2 1.66 2 2.32 2 3 C3.32 2.67 4.64 2.34 6 2 C5.67 2.99 5.34 3.98 5 5 C3.35 4.67 1.7 4.34 0 4 C-0.33 3.01 -0.66 2.02 -1 1 C-0.67 0.67 -0.34 0.34 0 0 Z " fill="#EBE6EB" transform="translate(97,29)"/>
<path d="M0 0 C1.32 0 2.64 0 4 0 C4 1.65 4 3.3 4 5 C2.66666667 5 1.33333333 5 0 5 C0 3.35 0 1.7 0 0 Z " fill="#DCD6D9" transform="translate(61,19)"/>
</svg>
